<mxfile host="app.diagrams.net" modified="2022-05-10T13:59:38.062Z" agent="5.0 (Windows NT 10.0; WOW64) AppleWebKit/537.36 (KHTML, like Gecko) Chrome/100.0.4896.127 Safari/537.36" etag="Ky4874SOzJyA2m8vnUep" version="18.0.2" type="github">
  <diagram id="C5RBs43oDa-KdzZeNtuy" name="Page-1">
    <mxGraphModel dx="2420" dy="1270" grid="1" gridSize="10" guides="1" tooltips="1" connect="1" arrows="1" fold="1" page="1" pageScale="1" pageWidth="827" pageHeight="1169" math="0" shadow="0">
      <root>
        <mxCell id="WIyWlLk6GJQsqaUBKTNV-0" />
        <mxCell id="WIyWlLk6GJQsqaUBKTNV-1" parent="WIyWlLk6GJQsqaUBKTNV-0" />
        <mxCell id="i6Bc_vDQ22BJko2PGX70-107" value="" style="rounded=1;whiteSpace=wrap;html=1;fontSize=12;glass=0;strokeWidth=1;shadow=0;arcSize=4;imageHeight=24;" vertex="1" parent="WIyWlLk6GJQsqaUBKTNV-1">
          <mxGeometry x="1129.75" y="840" width="240" height="251" as="geometry" />
        </mxCell>
        <mxCell id="Qt7xFMzCx2u2yuGG2vqX-39" value="" style="rounded=1;whiteSpace=wrap;html=1;fontSize=13;arcSize=4;" parent="WIyWlLk6GJQsqaUBKTNV-1" vertex="1">
          <mxGeometry x="34" y="169" width="202.5" height="340" as="geometry" />
        </mxCell>
        <mxCell id="WIyWlLk6GJQsqaUBKTNV-8" value="" style="rounded=0;html=1;jettySize=auto;orthogonalLoop=1;fontSize=11;endArrow=none;endFill=0;endSize=8;strokeWidth=1;shadow=0;labelBackgroundColor=none;edgeStyle=orthogonalEdgeStyle;startArrow=classic;startFill=1;exitX=0.5;exitY=1;exitDx=0;exitDy=0;" parent="WIyWlLk6GJQsqaUBKTNV-1" source="Qt7xFMzCx2u2yuGG2vqX-2" target="WIyWlLk6GJQsqaUBKTNV-11" edge="1">
          <mxGeometry x="0.3333" y="20" relative="1" as="geometry">
            <mxPoint as="offset" />
            <mxPoint x="150" y="615" as="sourcePoint" />
          </mxGeometry>
        </mxCell>
        <mxCell id="WIyWlLk6GJQsqaUBKTNV-11" value="Embedding" style="rounded=1;whiteSpace=wrap;html=1;fontSize=12;glass=0;strokeWidth=1;shadow=0;arcSize=9;" parent="WIyWlLk6GJQsqaUBKTNV-1" vertex="1">
          <mxGeometry x="90" y="627.13" width="120" height="40" as="geometry" />
        </mxCell>
        <mxCell id="Qt7xFMzCx2u2yuGG2vqX-2" value="&lt;font style=&quot;font-size: 19px&quot;&gt;+&lt;/font&gt;" style="ellipse;whiteSpace=wrap;html=1;aspect=fixed;" parent="WIyWlLk6GJQsqaUBKTNV-1" vertex="1">
          <mxGeometry x="137.5" y="572.5" width="25" height="25" as="geometry" />
        </mxCell>
        <mxCell id="Qt7xFMzCx2u2yuGG2vqX-3" value="&lt;div style=&quot;font-size: 13px;&quot;&gt;&lt;span style=&quot;font-size: 13px;&quot;&gt;Positional&lt;/span&gt;&lt;/div&gt;&lt;div style=&quot;font-size: 13px;&quot;&gt;&lt;span style=&quot;font-size: 13px;&quot;&gt;Embedding&lt;/span&gt;&lt;/div&gt;" style="text;html=1;strokeColor=none;fillColor=none;align=center;verticalAlign=middle;whiteSpace=wrap;rounded=0;fontSize=13;" parent="WIyWlLk6GJQsqaUBKTNV-1" vertex="1">
          <mxGeometry x="10" y="570" width="80" height="30" as="geometry" />
        </mxCell>
        <mxCell id="Qt7xFMzCx2u2yuGG2vqX-4" value="" style="endArrow=classic;html=1;rounded=0;fontSize=13;entryX=0;entryY=0.5;entryDx=0;entryDy=0;exitX=1;exitY=0.5;exitDx=0;exitDy=0;" parent="WIyWlLk6GJQsqaUBKTNV-1" source="Qt7xFMzCx2u2yuGG2vqX-3" target="Qt7xFMzCx2u2yuGG2vqX-2" edge="1">
          <mxGeometry width="50" height="50" relative="1" as="geometry">
            <mxPoint y="655" as="sourcePoint" />
            <mxPoint x="50" y="605" as="targetPoint" />
          </mxGeometry>
        </mxCell>
        <mxCell id="Qt7xFMzCx2u2yuGG2vqX-5" value="" style="endArrow=classic;html=1;rounded=0;fontSize=13;exitX=0.5;exitY=0;exitDx=0;exitDy=0;entryX=0.5;entryY=1;entryDx=0;entryDy=0;" parent="WIyWlLk6GJQsqaUBKTNV-1" source="Qt7xFMzCx2u2yuGG2vqX-2" target="Qt7xFMzCx2u2yuGG2vqX-6" edge="1">
          <mxGeometry width="50" height="50" relative="1" as="geometry">
            <mxPoint x="180" y="609" as="sourcePoint" />
            <mxPoint x="150" y="549" as="targetPoint" />
          </mxGeometry>
        </mxCell>
        <mxCell id="Qt7xFMzCx2u2yuGG2vqX-6" value="CNN" style="rounded=1;whiteSpace=wrap;html=1;fontSize=12;glass=0;strokeWidth=1;shadow=0;arcSize=9;imageHeight=24;fillColor=#e1d5e7;strokeColor=#9673a6;" parent="WIyWlLk6GJQsqaUBKTNV-1" vertex="1">
          <mxGeometry x="90" y="519" width="120" height="31" as="geometry" />
        </mxCell>
        <mxCell id="Qt7xFMzCx2u2yuGG2vqX-7" value="Multi-Head&lt;br&gt;Attention" style="rounded=1;whiteSpace=wrap;html=1;fontSize=12;glass=0;strokeWidth=1;shadow=0;arcSize=9;fillColor=#fad9d5;strokeColor=#ae4132;" parent="WIyWlLk6GJQsqaUBKTNV-1" vertex="1">
          <mxGeometry x="90" y="429" width="120" height="40" as="geometry" />
        </mxCell>
        <mxCell id="Qt7xFMzCx2u2yuGG2vqX-9" value="Add &amp;amp; Norm" style="rounded=1;whiteSpace=wrap;html=1;fontSize=12;glass=0;strokeWidth=1;shadow=0;arcSize=9;fillColor=#fff2cc;strokeColor=#d6b656;" parent="WIyWlLk6GJQsqaUBKTNV-1" vertex="1">
          <mxGeometry x="90" y="399" width="120" height="20" as="geometry" />
        </mxCell>
        <mxCell id="Qt7xFMzCx2u2yuGG2vqX-12" value="" style="endArrow=classic;html=1;rounded=0;fontSize=13;exitX=0.5;exitY=0;exitDx=0;exitDy=0;entryX=0.5;entryY=1;entryDx=0;entryDy=0;" parent="WIyWlLk6GJQsqaUBKTNV-1" source="Qt7xFMzCx2u2yuGG2vqX-6" target="Qt7xFMzCx2u2yuGG2vqX-7" edge="1">
          <mxGeometry width="50" height="50" relative="1" as="geometry">
            <mxPoint x="140" y="509" as="sourcePoint" />
            <mxPoint x="190" y="459" as="targetPoint" />
          </mxGeometry>
        </mxCell>
        <mxCell id="Qt7xFMzCx2u2yuGG2vqX-13" value="" style="endArrow=classic;html=1;rounded=0;fontSize=13;exitX=0.5;exitY=0;exitDx=0;exitDy=0;entryX=0.5;entryY=1;entryDx=0;entryDy=0;" parent="WIyWlLk6GJQsqaUBKTNV-1" source="Qt7xFMzCx2u2yuGG2vqX-7" target="Qt7xFMzCx2u2yuGG2vqX-9" edge="1">
          <mxGeometry width="50" height="50" relative="1" as="geometry">
            <mxPoint x="140" y="509" as="sourcePoint" />
            <mxPoint x="190" y="459" as="targetPoint" />
          </mxGeometry>
        </mxCell>
        <mxCell id="Qt7xFMzCx2u2yuGG2vqX-18" value="" style="endArrow=classic;html=1;rounded=0;fontSize=13;exitX=0.5;exitY=0;exitDx=0;exitDy=0;entryX=0.5;entryY=1;entryDx=0;entryDy=0;" parent="WIyWlLk6GJQsqaUBKTNV-1" source="Qt7xFMzCx2u2yuGG2vqX-9" target="Qt7xFMzCx2u2yuGG2vqX-28" edge="1">
          <mxGeometry width="50" height="50" relative="1" as="geometry">
            <mxPoint x="240" y="379" as="sourcePoint" />
            <mxPoint x="150" y="369" as="targetPoint" />
          </mxGeometry>
        </mxCell>
        <mxCell id="Qt7xFMzCx2u2yuGG2vqX-19" value="" style="endArrow=classic;html=1;rounded=1;fontSize=13;entryX=0;entryY=0.5;entryDx=0;entryDy=0;arcSize=15;" parent="WIyWlLk6GJQsqaUBKTNV-1" target="Qt7xFMzCx2u2yuGG2vqX-9" edge="1">
          <mxGeometry width="50" height="50" relative="1" as="geometry">
            <mxPoint x="150" y="499" as="sourcePoint" />
            <mxPoint x="180" y="409" as="targetPoint" />
            <Array as="points">
              <mxPoint x="60" y="499" />
              <mxPoint x="60" y="409" />
            </Array>
          </mxGeometry>
        </mxCell>
        <mxCell id="Qt7xFMzCx2u2yuGG2vqX-21" value="Feed&lt;br&gt;Forward" style="rounded=1;whiteSpace=wrap;html=1;fontSize=12;glass=0;strokeWidth=1;shadow=0;arcSize=9;fillColor=#dae8fc;strokeColor=#6c8ebf;" parent="WIyWlLk6GJQsqaUBKTNV-1" vertex="1">
          <mxGeometry x="90" y="219" width="120" height="40" as="geometry" />
        </mxCell>
        <mxCell id="Qt7xFMzCx2u2yuGG2vqX-22" value="Add &amp;amp; Norm" style="rounded=1;whiteSpace=wrap;html=1;fontSize=12;glass=0;strokeWidth=1;shadow=0;arcSize=9;fillColor=#fff2cc;strokeColor=#d6b656;" parent="WIyWlLk6GJQsqaUBKTNV-1" vertex="1">
          <mxGeometry x="90" y="189" width="120" height="20" as="geometry" />
        </mxCell>
        <mxCell id="Qt7xFMzCx2u2yuGG2vqX-23" value="" style="endArrow=classic;html=1;rounded=0;fontSize=13;exitX=0.5;exitY=0;exitDx=0;exitDy=0;entryX=0.5;entryY=1;entryDx=0;entryDy=0;startSize=2;" parent="WIyWlLk6GJQsqaUBKTNV-1" source="Qt7xFMzCx2u2yuGG2vqX-21" target="Qt7xFMzCx2u2yuGG2vqX-22" edge="1">
          <mxGeometry width="50" height="50" relative="1" as="geometry">
            <mxPoint x="140" y="299" as="sourcePoint" />
            <mxPoint x="190" y="249" as="targetPoint" />
          </mxGeometry>
        </mxCell>
        <mxCell id="Qt7xFMzCx2u2yuGG2vqX-25" value="" style="endArrow=classic;html=1;rounded=1;fontSize=13;entryX=0.75;entryY=1;entryDx=0;entryDy=0;arcSize=15;" parent="WIyWlLk6GJQsqaUBKTNV-1" target="Qt7xFMzCx2u2yuGG2vqX-7" edge="1">
          <mxGeometry width="50" height="50" relative="1" as="geometry">
            <mxPoint x="150" y="489" as="sourcePoint" />
            <mxPoint x="200" y="489" as="targetPoint" />
            <Array as="points">
              <mxPoint x="180" y="489" />
            </Array>
          </mxGeometry>
        </mxCell>
        <mxCell id="Qt7xFMzCx2u2yuGG2vqX-27" value="" style="endArrow=classic;html=1;rounded=1;fontSize=13;entryX=0.25;entryY=1;entryDx=0;entryDy=0;arcSize=15;" parent="WIyWlLk6GJQsqaUBKTNV-1" target="Qt7xFMzCx2u2yuGG2vqX-7" edge="1">
          <mxGeometry width="50" height="50" relative="1" as="geometry">
            <mxPoint x="150" y="489" as="sourcePoint" />
            <mxPoint x="150" y="469" as="targetPoint" />
            <Array as="points">
              <mxPoint x="120" y="489" />
            </Array>
          </mxGeometry>
        </mxCell>
        <mxCell id="Qt7xFMzCx2u2yuGG2vqX-28" value="Multi-Head&lt;br&gt;Attention" style="rounded=1;whiteSpace=wrap;html=1;fontSize=12;glass=0;strokeWidth=1;shadow=0;arcSize=9;fillColor=#fad9d5;strokeColor=#ae4132;" parent="WIyWlLk6GJQsqaUBKTNV-1" vertex="1">
          <mxGeometry x="90" y="319" width="120" height="40" as="geometry" />
        </mxCell>
        <mxCell id="Qt7xFMzCx2u2yuGG2vqX-29" value="Add &amp;amp; Norm" style="rounded=1;whiteSpace=wrap;html=1;fontSize=12;glass=0;strokeWidth=1;shadow=0;arcSize=9;fillColor=#fff2cc;strokeColor=#d6b656;" parent="WIyWlLk6GJQsqaUBKTNV-1" vertex="1">
          <mxGeometry x="90" y="289" width="120" height="20" as="geometry" />
        </mxCell>
        <mxCell id="Qt7xFMzCx2u2yuGG2vqX-30" value="" style="endArrow=classic;html=1;rounded=0;fontSize=13;exitX=0.5;exitY=0;exitDx=0;exitDy=0;entryX=0.5;entryY=1;entryDx=0;entryDy=0;" parent="WIyWlLk6GJQsqaUBKTNV-1" source="Qt7xFMzCx2u2yuGG2vqX-28" target="Qt7xFMzCx2u2yuGG2vqX-29" edge="1">
          <mxGeometry width="50" height="50" relative="1" as="geometry">
            <mxPoint x="140" y="399" as="sourcePoint" />
            <mxPoint x="190" y="349" as="targetPoint" />
          </mxGeometry>
        </mxCell>
        <mxCell id="Qt7xFMzCx2u2yuGG2vqX-31" value="" style="endArrow=classic;html=1;rounded=0;fontSize=13;exitX=0.5;exitY=0;exitDx=0;exitDy=0;entryX=0.5;entryY=1;entryDx=0;entryDy=0;" parent="WIyWlLk6GJQsqaUBKTNV-1" source="Qt7xFMzCx2u2yuGG2vqX-29" target="Qt7xFMzCx2u2yuGG2vqX-21" edge="1">
          <mxGeometry width="50" height="50" relative="1" as="geometry">
            <mxPoint x="240" y="269" as="sourcePoint" />
            <mxPoint x="150" y="259" as="targetPoint" />
          </mxGeometry>
        </mxCell>
        <mxCell id="Qt7xFMzCx2u2yuGG2vqX-32" value="" style="endArrow=classic;html=1;rounded=1;fontSize=13;entryX=0;entryY=0.5;entryDx=0;entryDy=0;arcSize=15;" parent="WIyWlLk6GJQsqaUBKTNV-1" target="Qt7xFMzCx2u2yuGG2vqX-29" edge="1">
          <mxGeometry width="50" height="50" relative="1" as="geometry">
            <mxPoint x="150" y="389" as="sourcePoint" />
            <mxPoint x="180" y="299" as="targetPoint" />
            <Array as="points">
              <mxPoint x="60" y="389" />
              <mxPoint x="60" y="299" />
            </Array>
          </mxGeometry>
        </mxCell>
        <mxCell id="Qt7xFMzCx2u2yuGG2vqX-33" value="" style="endArrow=classic;html=1;rounded=1;fontSize=13;entryX=0.75;entryY=1;entryDx=0;entryDy=0;arcSize=15;" parent="WIyWlLk6GJQsqaUBKTNV-1" target="Qt7xFMzCx2u2yuGG2vqX-28" edge="1">
          <mxGeometry width="50" height="50" relative="1" as="geometry">
            <mxPoint x="150" y="379" as="sourcePoint" />
            <mxPoint x="200" y="379" as="targetPoint" />
            <Array as="points">
              <mxPoint x="180" y="379" />
            </Array>
          </mxGeometry>
        </mxCell>
        <mxCell id="Qt7xFMzCx2u2yuGG2vqX-34" value="" style="endArrow=classic;html=1;rounded=1;fontSize=13;entryX=0.25;entryY=1;entryDx=0;entryDy=0;arcSize=15;" parent="WIyWlLk6GJQsqaUBKTNV-1" target="Qt7xFMzCx2u2yuGG2vqX-28" edge="1">
          <mxGeometry width="50" height="50" relative="1" as="geometry">
            <mxPoint x="150" y="379" as="sourcePoint" />
            <mxPoint x="150" y="359" as="targetPoint" />
            <Array as="points">
              <mxPoint x="120" y="379" />
            </Array>
          </mxGeometry>
        </mxCell>
        <mxCell id="Qt7xFMzCx2u2yuGG2vqX-38" value="" style="endArrow=classic;html=1;rounded=0;fontSize=13;" parent="WIyWlLk6GJQsqaUBKTNV-1" target="WIyWlLk6GJQsqaUBKTNV-11" edge="1">
          <mxGeometry width="50" height="50" relative="1" as="geometry">
            <mxPoint x="150" y="712.13" as="sourcePoint" />
            <mxPoint x="210" y="562.13" as="targetPoint" />
          </mxGeometry>
        </mxCell>
        <mxCell id="Qt7xFMzCx2u2yuGG2vqX-60" value="" style="rounded=1;whiteSpace=wrap;html=1;fontSize=13;arcSize=4;" parent="WIyWlLk6GJQsqaUBKTNV-1" vertex="1">
          <mxGeometry x="284" y="50" width="195" height="460" as="geometry" />
        </mxCell>
        <mxCell id="Qt7xFMzCx2u2yuGG2vqX-61" value="" style="rounded=0;html=1;jettySize=auto;orthogonalLoop=1;fontSize=11;endArrow=none;endFill=0;endSize=8;strokeWidth=1;shadow=0;labelBackgroundColor=none;edgeStyle=orthogonalEdgeStyle;startArrow=classic;startFill=1;exitX=0.5;exitY=1;exitDx=0;exitDy=0;" parent="WIyWlLk6GJQsqaUBKTNV-1" source="Qt7xFMzCx2u2yuGG2vqX-63" target="Qt7xFMzCx2u2yuGG2vqX-62" edge="1">
          <mxGeometry x="0.3333" y="20" relative="1" as="geometry">
            <mxPoint as="offset" />
            <mxPoint x="369" y="616" as="sourcePoint" />
          </mxGeometry>
        </mxCell>
        <mxCell id="Qt7xFMzCx2u2yuGG2vqX-62" value="NL Comment&lt;br&gt;Embedding" style="rounded=1;whiteSpace=wrap;html=1;fontSize=12;glass=0;strokeWidth=1;shadow=0;arcSize=9;" parent="WIyWlLk6GJQsqaUBKTNV-1" vertex="1">
          <mxGeometry x="309" y="628.13" width="120" height="40" as="geometry" />
        </mxCell>
        <mxCell id="Qt7xFMzCx2u2yuGG2vqX-63" value="&lt;font style=&quot;font-size: 19px&quot;&gt;+&lt;/font&gt;" style="ellipse;whiteSpace=wrap;html=1;aspect=fixed;" parent="WIyWlLk6GJQsqaUBKTNV-1" vertex="1">
          <mxGeometry x="356.5" y="573.5" width="25" height="25" as="geometry" />
        </mxCell>
        <mxCell id="Qt7xFMzCx2u2yuGG2vqX-64" value="&lt;div style=&quot;font-size: 13px;&quot;&gt;&lt;span style=&quot;font-size: 13px;&quot;&gt;Positional&lt;/span&gt;&lt;/div&gt;&lt;div style=&quot;font-size: 13px;&quot;&gt;&lt;span style=&quot;font-size: 13px;&quot;&gt;Embedding&lt;/span&gt;&lt;/div&gt;" style="text;html=1;strokeColor=none;fillColor=none;align=center;verticalAlign=middle;whiteSpace=wrap;rounded=0;fontSize=13;" parent="WIyWlLk6GJQsqaUBKTNV-1" vertex="1">
          <mxGeometry x="419" y="571" width="80" height="30" as="geometry" />
        </mxCell>
        <mxCell id="Qt7xFMzCx2u2yuGG2vqX-65" value="" style="endArrow=classic;html=1;rounded=0;fontSize=13;entryX=1;entryY=0.5;entryDx=0;entryDy=0;exitX=0;exitY=0.5;exitDx=0;exitDy=0;" parent="WIyWlLk6GJQsqaUBKTNV-1" source="Qt7xFMzCx2u2yuGG2vqX-64" target="Qt7xFMzCx2u2yuGG2vqX-63" edge="1">
          <mxGeometry width="50" height="50" relative="1" as="geometry">
            <mxPoint x="219" y="656" as="sourcePoint" />
            <mxPoint x="269" y="606" as="targetPoint" />
          </mxGeometry>
        </mxCell>
        <mxCell id="Qt7xFMzCx2u2yuGG2vqX-66" value="" style="endArrow=classic;html=1;rounded=0;fontSize=13;exitX=0.5;exitY=0;exitDx=0;exitDy=0;entryX=0.5;entryY=1;entryDx=0;entryDy=0;" parent="WIyWlLk6GJQsqaUBKTNV-1" source="Qt7xFMzCx2u2yuGG2vqX-63" target="Qt7xFMzCx2u2yuGG2vqX-68" edge="1">
          <mxGeometry width="50" height="50" relative="1" as="geometry">
            <mxPoint x="399" y="610" as="sourcePoint" />
            <mxPoint x="369" y="560" as="targetPoint" />
          </mxGeometry>
        </mxCell>
        <mxCell id="Qt7xFMzCx2u2yuGG2vqX-68" value="Masked&lt;br&gt;Multi-Head&lt;br&gt;Attention" style="rounded=1;whiteSpace=wrap;html=1;fontSize=12;glass=0;strokeWidth=1;shadow=0;arcSize=9;fillColor=#ffe6cc;strokeColor=#d79b00;" parent="WIyWlLk6GJQsqaUBKTNV-1" vertex="1">
          <mxGeometry x="309" y="410" width="120" height="60" as="geometry" />
        </mxCell>
        <mxCell id="Qt7xFMzCx2u2yuGG2vqX-69" value="Add &amp;amp; Norm" style="rounded=1;whiteSpace=wrap;html=1;fontSize=12;glass=0;strokeWidth=1;shadow=0;arcSize=9;fillColor=#fff2cc;strokeColor=#d6b656;" parent="WIyWlLk6GJQsqaUBKTNV-1" vertex="1">
          <mxGeometry x="309" y="380" width="120" height="20" as="geometry" />
        </mxCell>
        <mxCell id="Qt7xFMzCx2u2yuGG2vqX-71" value="" style="endArrow=classic;html=1;rounded=0;fontSize=13;exitX=0.5;exitY=0;exitDx=0;exitDy=0;entryX=0.5;entryY=1;entryDx=0;entryDy=0;" parent="WIyWlLk6GJQsqaUBKTNV-1" source="Qt7xFMzCx2u2yuGG2vqX-68" target="Qt7xFMzCx2u2yuGG2vqX-69" edge="1">
          <mxGeometry width="50" height="50" relative="1" as="geometry">
            <mxPoint x="369" y="410" as="sourcePoint" />
            <mxPoint x="409" y="440" as="targetPoint" />
          </mxGeometry>
        </mxCell>
        <mxCell id="Qt7xFMzCx2u2yuGG2vqX-72" value="" style="endArrow=classic;html=1;rounded=1;fontSize=13;exitX=0.5;exitY=0;exitDx=0;exitDy=0;entryX=0.75;entryY=1;entryDx=0;entryDy=0;arcSize=15;" parent="WIyWlLk6GJQsqaUBKTNV-1" source="Qt7xFMzCx2u2yuGG2vqX-69" target="Qt7xFMzCx2u2yuGG2vqX-79" edge="1">
          <mxGeometry width="50" height="50" relative="1" as="geometry">
            <mxPoint x="459" y="360" as="sourcePoint" />
            <mxPoint x="369" y="350" as="targetPoint" />
            <Array as="points">
              <mxPoint x="369" y="360" />
              <mxPoint x="399" y="360" />
            </Array>
          </mxGeometry>
        </mxCell>
        <mxCell id="Qt7xFMzCx2u2yuGG2vqX-73" value="" style="endArrow=classic;html=1;rounded=1;fontSize=13;entryX=1;entryY=0.5;entryDx=0;entryDy=0;arcSize=15;" parent="WIyWlLk6GJQsqaUBKTNV-1" target="Qt7xFMzCx2u2yuGG2vqX-69" edge="1">
          <mxGeometry width="50" height="50" relative="1" as="geometry">
            <mxPoint x="368.9999999999998" y="500" as="sourcePoint" />
            <mxPoint x="399" y="410" as="targetPoint" />
            <Array as="points">
              <mxPoint x="459" y="500" />
              <mxPoint x="459" y="390" />
            </Array>
          </mxGeometry>
        </mxCell>
        <mxCell id="Qt7xFMzCx2u2yuGG2vqX-74" value="Feed&lt;br&gt;Forward" style="rounded=1;whiteSpace=wrap;html=1;fontSize=12;glass=0;strokeWidth=1;shadow=0;arcSize=9;fillColor=#dae8fc;strokeColor=#6c8ebf;" parent="WIyWlLk6GJQsqaUBKTNV-1" vertex="1">
          <mxGeometry x="309" y="90" width="120" height="40" as="geometry" />
        </mxCell>
        <mxCell id="Qt7xFMzCx2u2yuGG2vqX-75" value="Add &amp;amp; Norm" style="rounded=1;whiteSpace=wrap;html=1;fontSize=12;glass=0;strokeWidth=1;shadow=0;arcSize=9;fillColor=#fff2cc;strokeColor=#d6b656;" parent="WIyWlLk6GJQsqaUBKTNV-1" vertex="1">
          <mxGeometry x="309" y="60" width="120" height="20" as="geometry" />
        </mxCell>
        <mxCell id="Qt7xFMzCx2u2yuGG2vqX-76" value="" style="endArrow=classic;html=1;rounded=0;fontSize=13;exitX=0.5;exitY=0;exitDx=0;exitDy=0;entryX=0.5;entryY=1;entryDx=0;entryDy=0;" parent="WIyWlLk6GJQsqaUBKTNV-1" source="Qt7xFMzCx2u2yuGG2vqX-74" target="Qt7xFMzCx2u2yuGG2vqX-75" edge="1">
          <mxGeometry width="50" height="50" relative="1" as="geometry">
            <mxPoint x="359" y="170" as="sourcePoint" />
            <mxPoint x="409" y="120" as="targetPoint" />
          </mxGeometry>
        </mxCell>
        <mxCell id="Qt7xFMzCx2u2yuGG2vqX-77" value="" style="endArrow=classic;html=1;rounded=1;fontSize=13;entryX=0.75;entryY=1;entryDx=0;entryDy=0;arcSize=15;" parent="WIyWlLk6GJQsqaUBKTNV-1" target="Qt7xFMzCx2u2yuGG2vqX-68" edge="1">
          <mxGeometry width="50" height="50" relative="1" as="geometry">
            <mxPoint x="368.9999999999998" y="490" as="sourcePoint" />
            <mxPoint x="419" y="490" as="targetPoint" />
            <Array as="points">
              <mxPoint x="399" y="490" />
            </Array>
          </mxGeometry>
        </mxCell>
        <mxCell id="Qt7xFMzCx2u2yuGG2vqX-78" value="" style="endArrow=classic;html=1;rounded=1;fontSize=13;entryX=0.25;entryY=1;entryDx=0;entryDy=0;arcSize=15;" parent="WIyWlLk6GJQsqaUBKTNV-1" target="Qt7xFMzCx2u2yuGG2vqX-68" edge="1">
          <mxGeometry width="50" height="50" relative="1" as="geometry">
            <mxPoint x="368.9999999999998" y="490" as="sourcePoint" />
            <mxPoint x="369" y="470" as="targetPoint" />
            <Array as="points">
              <mxPoint x="339" y="490" />
            </Array>
          </mxGeometry>
        </mxCell>
        <mxCell id="Qt7xFMzCx2u2yuGG2vqX-79" value="Multi-Head&lt;br&gt;Attention" style="rounded=1;whiteSpace=wrap;html=1;fontSize=12;glass=0;strokeWidth=1;shadow=0;arcSize=9;fillColor=#fad9d5;strokeColor=#ae4132;" parent="WIyWlLk6GJQsqaUBKTNV-1" vertex="1">
          <mxGeometry x="309" y="300" width="120" height="40" as="geometry" />
        </mxCell>
        <mxCell id="Qt7xFMzCx2u2yuGG2vqX-80" value="Add &amp;amp; Norm" style="rounded=1;whiteSpace=wrap;html=1;fontSize=12;glass=0;strokeWidth=1;shadow=0;arcSize=9;fillColor=#fff2cc;strokeColor=#d6b656;" parent="WIyWlLk6GJQsqaUBKTNV-1" vertex="1">
          <mxGeometry x="309" y="270" width="120" height="20" as="geometry" />
        </mxCell>
        <mxCell id="Qt7xFMzCx2u2yuGG2vqX-81" value="" style="endArrow=classic;html=1;rounded=0;fontSize=13;exitX=0.5;exitY=0;exitDx=0;exitDy=0;entryX=0.5;entryY=1;entryDx=0;entryDy=0;" parent="WIyWlLk6GJQsqaUBKTNV-1" source="Qt7xFMzCx2u2yuGG2vqX-79" target="Qt7xFMzCx2u2yuGG2vqX-80" edge="1">
          <mxGeometry width="50" height="50" relative="1" as="geometry">
            <mxPoint x="359" y="380" as="sourcePoint" />
            <mxPoint x="409" y="330" as="targetPoint" />
          </mxGeometry>
        </mxCell>
        <mxCell id="Qt7xFMzCx2u2yuGG2vqX-83" value="" style="endArrow=classic;html=1;rounded=1;fontSize=13;arcSize=15;" parent="WIyWlLk6GJQsqaUBKTNV-1" edge="1">
          <mxGeometry width="50" height="50" relative="1" as="geometry">
            <mxPoint x="368.9999999999998" y="370" as="sourcePoint" />
            <mxPoint x="429" y="280" as="targetPoint" />
            <Array as="points">
              <mxPoint x="459" y="370" />
              <mxPoint x="459" y="280" />
            </Array>
          </mxGeometry>
        </mxCell>
        <mxCell id="Qt7xFMzCx2u2yuGG2vqX-85" value="" style="endArrow=classic;html=1;fontSize=13;exitX=0.5;exitY=0;exitDx=0;exitDy=0;entryX=0.5;entryY=1;entryDx=0;entryDy=0;edgeStyle=orthogonalEdgeStyle;rounded=1;arcSize=15;" parent="WIyWlLk6GJQsqaUBKTNV-1" source="Qt7xFMzCx2u2yuGG2vqX-22" target="Qt7xFMzCx2u2yuGG2vqX-79" edge="1">
          <mxGeometry width="50" height="50" relative="1" as="geometry">
            <mxPoint x="413.9999999999998" y="360" as="sourcePoint" />
            <mxPoint x="354" y="340" as="targetPoint" />
            <Array as="points">
              <mxPoint x="150" y="150" />
              <mxPoint x="260" y="150" />
              <mxPoint x="260" y="360" />
              <mxPoint x="369" y="360" />
            </Array>
          </mxGeometry>
        </mxCell>
        <mxCell id="Qt7xFMzCx2u2yuGG2vqX-86" value="" style="endArrow=classic;html=1;rounded=0;fontSize=13;exitX=0.5;exitY=0;exitDx=0;exitDy=0;" parent="WIyWlLk6GJQsqaUBKTNV-1" source="Qt7xFMzCx2u2yuGG2vqX-87" target="Qt7xFMzCx2u2yuGG2vqX-62" edge="1">
          <mxGeometry width="50" height="50" relative="1" as="geometry">
            <mxPoint x="368.9999999999998" y="713.13" as="sourcePoint" />
            <mxPoint x="429" y="563.13" as="targetPoint" />
          </mxGeometry>
        </mxCell>
        <mxCell id="Qt7xFMzCx2u2yuGG2vqX-87" value="Comment" style="text;html=1;strokeColor=none;fillColor=none;align=center;verticalAlign=middle;whiteSpace=wrap;rounded=0;fontSize=13;" parent="WIyWlLk6GJQsqaUBKTNV-1" vertex="1">
          <mxGeometry x="339" y="708.13" width="60" height="30" as="geometry" />
        </mxCell>
        <mxCell id="Qt7xFMzCx2u2yuGG2vqX-89" value="Multi-Head&lt;br&gt;Attention" style="rounded=1;whiteSpace=wrap;html=1;fontSize=12;glass=0;strokeWidth=1;shadow=0;arcSize=9;fillColor=#fad9d5;strokeColor=#ae4132;" parent="WIyWlLk6GJQsqaUBKTNV-1" vertex="1">
          <mxGeometry x="309" y="190" width="120" height="40" as="geometry" />
        </mxCell>
        <mxCell id="Qt7xFMzCx2u2yuGG2vqX-90" value="Add &amp;amp; Norm" style="rounded=1;whiteSpace=wrap;html=1;fontSize=12;glass=0;strokeWidth=1;shadow=0;arcSize=9;fillColor=#fff2cc;strokeColor=#d6b656;" parent="WIyWlLk6GJQsqaUBKTNV-1" vertex="1">
          <mxGeometry x="309" y="160" width="120" height="20" as="geometry" />
        </mxCell>
        <mxCell id="Qt7xFMzCx2u2yuGG2vqX-91" value="" style="endArrow=classic;html=1;rounded=0;fontSize=13;exitX=0.5;exitY=0;exitDx=0;exitDy=0;entryX=0.5;entryY=1;entryDx=0;entryDy=0;" parent="WIyWlLk6GJQsqaUBKTNV-1" source="Qt7xFMzCx2u2yuGG2vqX-89" target="Qt7xFMzCx2u2yuGG2vqX-90" edge="1">
          <mxGeometry width="50" height="50" relative="1" as="geometry">
            <mxPoint x="359" y="270" as="sourcePoint" />
            <mxPoint x="409" y="220" as="targetPoint" />
          </mxGeometry>
        </mxCell>
        <mxCell id="Qt7xFMzCx2u2yuGG2vqX-92" value="" style="endArrow=classic;html=1;rounded=1;fontSize=13;arcSize=15;" parent="WIyWlLk6GJQsqaUBKTNV-1" edge="1">
          <mxGeometry width="50" height="50" relative="1" as="geometry">
            <mxPoint x="368.9999999999998" y="260" as="sourcePoint" />
            <mxPoint x="429" y="170" as="targetPoint" />
            <Array as="points">
              <mxPoint x="459" y="260" />
              <mxPoint x="459" y="170" />
            </Array>
          </mxGeometry>
        </mxCell>
        <mxCell id="Qt7xFMzCx2u2yuGG2vqX-95" value="" style="endArrow=classic;html=1;rounded=0;fontSize=13;exitX=0.5;exitY=0;exitDx=0;exitDy=0;entryX=0.5;entryY=1;entryDx=0;entryDy=0;" parent="WIyWlLk6GJQsqaUBKTNV-1" source="Qt7xFMzCx2u2yuGG2vqX-90" target="Qt7xFMzCx2u2yuGG2vqX-74" edge="1">
          <mxGeometry width="50" height="50" relative="1" as="geometry">
            <mxPoint x="459" y="220" as="sourcePoint" />
            <mxPoint x="509" y="170" as="targetPoint" />
          </mxGeometry>
        </mxCell>
        <mxCell id="Qt7xFMzCx2u2yuGG2vqX-96" value="" style="endArrow=classic;html=1;rounded=1;fontSize=13;arcSize=15;" parent="WIyWlLk6GJQsqaUBKTNV-1" edge="1">
          <mxGeometry width="50" height="50" relative="1" as="geometry">
            <mxPoint x="369" y="150" as="sourcePoint" />
            <mxPoint x="429" y="70" as="targetPoint" />
            <Array as="points">
              <mxPoint x="459" y="150" />
              <mxPoint x="459" y="70" />
            </Array>
          </mxGeometry>
        </mxCell>
        <mxCell id="Qt7xFMzCx2u2yuGG2vqX-97" value="" style="endArrow=classic;html=1;rounded=0;fontSize=13;entryX=0.5;entryY=1;entryDx=0;entryDy=0;" parent="WIyWlLk6GJQsqaUBKTNV-1" target="Qt7xFMzCx2u2yuGG2vqX-98" edge="1">
          <mxGeometry width="50" height="50" relative="1" as="geometry">
            <mxPoint x="369" y="60" as="sourcePoint" />
            <mxPoint x="369" as="targetPoint" />
          </mxGeometry>
        </mxCell>
        <mxCell id="Qt7xFMzCx2u2yuGG2vqX-98" value="Softmax" style="rounded=1;whiteSpace=wrap;html=1;fontSize=12;glass=0;strokeWidth=1;shadow=0;arcSize=9;fillColor=#d5e8d4;strokeColor=#82b366;" parent="WIyWlLk6GJQsqaUBKTNV-1" vertex="1">
          <mxGeometry x="309" y="10" width="120" height="20" as="geometry" />
        </mxCell>
        <mxCell id="Qt7xFMzCx2u2yuGG2vqX-103" value="" style="endArrow=classic;html=1;rounded=0;fontSize=13;entryX=0.25;entryY=1;entryDx=0;entryDy=0;" parent="WIyWlLk6GJQsqaUBKTNV-1" target="Qt7xFMzCx2u2yuGG2vqX-79" edge="1">
          <mxGeometry width="50" height="50" relative="1" as="geometry">
            <mxPoint x="339" y="360" as="sourcePoint" />
            <mxPoint x="354" y="330" as="targetPoint" />
          </mxGeometry>
        </mxCell>
        <mxCell id="Qt7xFMzCx2u2yuGG2vqX-107" value="" style="endArrow=classic;html=1;rounded=1;fontSize=13;entryX=0.75;entryY=1;entryDx=0;entryDy=0;arcSize=15;" parent="WIyWlLk6GJQsqaUBKTNV-1" source="Qt7xFMzCx2u2yuGG2vqX-80" target="Qt7xFMzCx2u2yuGG2vqX-89" edge="1">
          <mxGeometry width="50" height="50" relative="1" as="geometry">
            <mxPoint x="379" y="390" as="sourcePoint" />
            <mxPoint x="409" y="350" as="targetPoint" />
            <Array as="points">
              <mxPoint x="369" y="250" />
              <mxPoint x="399" y="250" />
            </Array>
          </mxGeometry>
        </mxCell>
        <mxCell id="Qt7xFMzCx2u2yuGG2vqX-108" value="" style="endArrow=classic;html=1;rounded=0;fontSize=13;entryX=0.25;entryY=1;entryDx=0;entryDy=0;" parent="WIyWlLk6GJQsqaUBKTNV-1" target="Qt7xFMzCx2u2yuGG2vqX-89" edge="1">
          <mxGeometry width="50" height="50" relative="1" as="geometry">
            <mxPoint x="339" y="250" as="sourcePoint" />
            <mxPoint x="349" y="350" as="targetPoint" />
          </mxGeometry>
        </mxCell>
        <mxCell id="Qt7xFMzCx2u2yuGG2vqX-109" value="" style="endArrow=classic;html=1;rounded=1;fontSize=13;elbow=vertical;entryX=0.5;entryY=1;entryDx=0;entryDy=0;arcSize=15;" parent="WIyWlLk6GJQsqaUBKTNV-1" target="Qt7xFMzCx2u2yuGG2vqX-89" edge="1">
          <mxGeometry width="50" height="50" relative="1" as="geometry">
            <mxPoint x="260" y="250" as="sourcePoint" />
            <mxPoint x="224" y="270" as="targetPoint" />
            <Array as="points">
              <mxPoint x="369" y="250" />
            </Array>
          </mxGeometry>
        </mxCell>
        <mxCell id="Qt7xFMzCx2u2yuGG2vqX-112" value="" style="rounded=1;whiteSpace=wrap;html=1;fontSize=13;arcSize=4;" parent="WIyWlLk6GJQsqaUBKTNV-1" vertex="1">
          <mxGeometry x="534" y="280" width="202.5" height="229" as="geometry" />
        </mxCell>
        <mxCell id="Qt7xFMzCx2u2yuGG2vqX-113" value="" style="rounded=0;html=1;jettySize=auto;orthogonalLoop=1;fontSize=11;endArrow=none;endFill=0;endSize=8;strokeWidth=1;shadow=0;labelBackgroundColor=none;edgeStyle=orthogonalEdgeStyle;startArrow=classic;startFill=1;exitX=0.5;exitY=1;exitDx=0;exitDy=0;" parent="WIyWlLk6GJQsqaUBKTNV-1" source="Qt7xFMzCx2u2yuGG2vqX-115" target="Qt7xFMzCx2u2yuGG2vqX-114" edge="1">
          <mxGeometry x="0.3333" y="20" relative="1" as="geometry">
            <mxPoint as="offset" />
            <mxPoint x="650" y="615" as="sourcePoint" />
          </mxGeometry>
        </mxCell>
        <mxCell id="Qt7xFMzCx2u2yuGG2vqX-114" value="Embedding" style="rounded=1;whiteSpace=wrap;html=1;fontSize=12;glass=0;strokeWidth=1;shadow=0;arcSize=9;" parent="WIyWlLk6GJQsqaUBKTNV-1" vertex="1">
          <mxGeometry x="590" y="627.1300000000001" width="120" height="40" as="geometry" />
        </mxCell>
        <mxCell id="Qt7xFMzCx2u2yuGG2vqX-115" value="&lt;font style=&quot;font-size: 19px&quot;&gt;+&lt;/font&gt;" style="ellipse;whiteSpace=wrap;html=1;aspect=fixed;" parent="WIyWlLk6GJQsqaUBKTNV-1" vertex="1">
          <mxGeometry x="637.5" y="572.5" width="25" height="25" as="geometry" />
        </mxCell>
        <mxCell id="Qt7xFMzCx2u2yuGG2vqX-116" value="&lt;div style=&quot;font-size: 13px;&quot;&gt;&lt;span style=&quot;font-size: 13px;&quot;&gt;Positional&lt;/span&gt;&lt;/div&gt;&lt;div style=&quot;font-size: 13px;&quot;&gt;&lt;span style=&quot;font-size: 13px;&quot;&gt;Embedding&lt;/span&gt;&lt;/div&gt;" style="text;html=1;strokeColor=none;fillColor=none;align=center;verticalAlign=middle;whiteSpace=wrap;rounded=0;fontSize=13;" parent="WIyWlLk6GJQsqaUBKTNV-1" vertex="1">
          <mxGeometry x="510" y="570" width="80" height="30" as="geometry" />
        </mxCell>
        <mxCell id="Qt7xFMzCx2u2yuGG2vqX-117" value="" style="endArrow=classic;html=1;rounded=0;fontSize=13;entryX=0;entryY=0.5;entryDx=0;entryDy=0;exitX=1;exitY=0.5;exitDx=0;exitDy=0;" parent="WIyWlLk6GJQsqaUBKTNV-1" source="Qt7xFMzCx2u2yuGG2vqX-116" target="Qt7xFMzCx2u2yuGG2vqX-115" edge="1">
          <mxGeometry width="50" height="50" relative="1" as="geometry">
            <mxPoint x="500" y="655" as="sourcePoint" />
            <mxPoint x="550" y="605" as="targetPoint" />
          </mxGeometry>
        </mxCell>
        <mxCell id="Qt7xFMzCx2u2yuGG2vqX-118" value="" style="endArrow=classic;html=1;rounded=0;fontSize=13;exitX=0.5;exitY=0;exitDx=0;exitDy=0;entryX=0.5;entryY=1;entryDx=0;entryDy=0;" parent="WIyWlLk6GJQsqaUBKTNV-1" source="Qt7xFMzCx2u2yuGG2vqX-115" target="Qt7xFMzCx2u2yuGG2vqX-119" edge="1">
          <mxGeometry width="50" height="50" relative="1" as="geometry">
            <mxPoint x="680" y="609" as="sourcePoint" />
            <mxPoint x="650" y="549" as="targetPoint" />
          </mxGeometry>
        </mxCell>
        <mxCell id="Qt7xFMzCx2u2yuGG2vqX-119" value="CNN" style="rounded=1;whiteSpace=wrap;html=1;fontSize=12;glass=0;strokeWidth=1;shadow=0;arcSize=9;imageHeight=24;fillColor=#e1d5e7;strokeColor=#9673a6;" parent="WIyWlLk6GJQsqaUBKTNV-1" vertex="1">
          <mxGeometry x="590" y="519" width="120" height="31" as="geometry" />
        </mxCell>
        <mxCell id="Qt7xFMzCx2u2yuGG2vqX-120" value="Multi-Head&lt;br&gt;Attention" style="rounded=1;whiteSpace=wrap;html=1;fontSize=12;glass=0;strokeWidth=1;shadow=0;arcSize=9;fillColor=#fad9d5;strokeColor=#ae4132;" parent="WIyWlLk6GJQsqaUBKTNV-1" vertex="1">
          <mxGeometry x="590" y="429" width="120" height="40" as="geometry" />
        </mxCell>
        <mxCell id="Qt7xFMzCx2u2yuGG2vqX-121" value="Add &amp;amp; Norm" style="rounded=1;whiteSpace=wrap;html=1;fontSize=12;glass=0;strokeWidth=1;shadow=0;arcSize=9;fillColor=#fff2cc;strokeColor=#d6b656;" parent="WIyWlLk6GJQsqaUBKTNV-1" vertex="1">
          <mxGeometry x="590" y="399" width="120" height="20" as="geometry" />
        </mxCell>
        <mxCell id="Qt7xFMzCx2u2yuGG2vqX-122" value="" style="endArrow=classic;html=1;rounded=0;fontSize=13;exitX=0.5;exitY=0;exitDx=0;exitDy=0;entryX=0.5;entryY=1;entryDx=0;entryDy=0;" parent="WIyWlLk6GJQsqaUBKTNV-1" source="Qt7xFMzCx2u2yuGG2vqX-119" target="Qt7xFMzCx2u2yuGG2vqX-120" edge="1">
          <mxGeometry width="50" height="50" relative="1" as="geometry">
            <mxPoint x="640" y="509" as="sourcePoint" />
            <mxPoint x="690" y="459" as="targetPoint" />
          </mxGeometry>
        </mxCell>
        <mxCell id="Qt7xFMzCx2u2yuGG2vqX-123" value="" style="endArrow=classic;html=1;rounded=0;fontSize=13;exitX=0.5;exitY=0;exitDx=0;exitDy=0;entryX=0.5;entryY=1;entryDx=0;entryDy=0;" parent="WIyWlLk6GJQsqaUBKTNV-1" source="Qt7xFMzCx2u2yuGG2vqX-120" target="Qt7xFMzCx2u2yuGG2vqX-121" edge="1">
          <mxGeometry width="50" height="50" relative="1" as="geometry">
            <mxPoint x="640" y="509" as="sourcePoint" />
            <mxPoint x="690" y="459" as="targetPoint" />
          </mxGeometry>
        </mxCell>
        <mxCell id="Qt7xFMzCx2u2yuGG2vqX-124" value="" style="endArrow=classic;html=1;rounded=0;fontSize=13;exitX=0.5;exitY=0;exitDx=0;exitDy=0;entryX=0.5;entryY=1;entryDx=0;entryDy=0;" parent="WIyWlLk6GJQsqaUBKTNV-1" source="Qt7xFMzCx2u2yuGG2vqX-121" target="Qt7xFMzCx2u2yuGG2vqX-126" edge="1">
          <mxGeometry width="50" height="50" relative="1" as="geometry">
            <mxPoint x="740" y="379" as="sourcePoint" />
            <mxPoint x="650" y="359" as="targetPoint" />
          </mxGeometry>
        </mxCell>
        <mxCell id="Qt7xFMzCx2u2yuGG2vqX-125" value="" style="endArrow=classic;html=1;rounded=1;fontSize=13;entryX=0;entryY=0.5;entryDx=0;entryDy=0;arcSize=15;" parent="WIyWlLk6GJQsqaUBKTNV-1" target="Qt7xFMzCx2u2yuGG2vqX-121" edge="1">
          <mxGeometry width="50" height="50" relative="1" as="geometry">
            <mxPoint x="650" y="499" as="sourcePoint" />
            <mxPoint x="680" y="409" as="targetPoint" />
            <Array as="points">
              <mxPoint x="560" y="499" />
              <mxPoint x="560" y="409" />
            </Array>
          </mxGeometry>
        </mxCell>
        <mxCell id="Qt7xFMzCx2u2yuGG2vqX-126" value="Feed&lt;br&gt;Forward" style="rounded=1;whiteSpace=wrap;html=1;fontSize=12;glass=0;strokeWidth=1;shadow=0;arcSize=9;fillColor=#dae8fc;strokeColor=#6c8ebf;" parent="WIyWlLk6GJQsqaUBKTNV-1" vertex="1">
          <mxGeometry x="590" y="330" width="120" height="40" as="geometry" />
        </mxCell>
        <mxCell id="Qt7xFMzCx2u2yuGG2vqX-127" value="Add &amp;amp; Norm" style="rounded=1;whiteSpace=wrap;html=1;fontSize=12;glass=0;strokeWidth=1;shadow=0;arcSize=9;fillColor=#fff2cc;strokeColor=#d6b656;" parent="WIyWlLk6GJQsqaUBKTNV-1" vertex="1">
          <mxGeometry x="590" y="300" width="120" height="20" as="geometry" />
        </mxCell>
        <mxCell id="Qt7xFMzCx2u2yuGG2vqX-128" value="" style="endArrow=classic;html=1;rounded=0;fontSize=13;exitX=0.5;exitY=0;exitDx=0;exitDy=0;entryX=0.5;entryY=1;entryDx=0;entryDy=0;startSize=2;" parent="WIyWlLk6GJQsqaUBKTNV-1" source="Qt7xFMzCx2u2yuGG2vqX-126" target="Qt7xFMzCx2u2yuGG2vqX-127" edge="1">
          <mxGeometry width="50" height="50" relative="1" as="geometry">
            <mxPoint x="640" y="410" as="sourcePoint" />
            <mxPoint x="690" y="360" as="targetPoint" />
          </mxGeometry>
        </mxCell>
        <mxCell id="Qt7xFMzCx2u2yuGG2vqX-129" value="" style="endArrow=classic;html=1;rounded=1;fontSize=13;entryX=0.75;entryY=1;entryDx=0;entryDy=0;arcSize=15;" parent="WIyWlLk6GJQsqaUBKTNV-1" target="Qt7xFMzCx2u2yuGG2vqX-120" edge="1">
          <mxGeometry width="50" height="50" relative="1" as="geometry">
            <mxPoint x="650" y="489" as="sourcePoint" />
            <mxPoint x="700" y="489" as="targetPoint" />
            <Array as="points">
              <mxPoint x="680" y="489" />
            </Array>
          </mxGeometry>
        </mxCell>
        <mxCell id="Qt7xFMzCx2u2yuGG2vqX-130" value="" style="endArrow=classic;html=1;rounded=1;fontSize=13;entryX=0.25;entryY=1;entryDx=0;entryDy=0;arcSize=15;" parent="WIyWlLk6GJQsqaUBKTNV-1" target="Qt7xFMzCx2u2yuGG2vqX-120" edge="1">
          <mxGeometry width="50" height="50" relative="1" as="geometry">
            <mxPoint x="650" y="489" as="sourcePoint" />
            <mxPoint x="650" y="469" as="targetPoint" />
            <Array as="points">
              <mxPoint x="620" y="489" />
            </Array>
          </mxGeometry>
        </mxCell>
        <mxCell id="Qt7xFMzCx2u2yuGG2vqX-138" value="" style="endArrow=classic;html=1;rounded=0;fontSize=13;" parent="WIyWlLk6GJQsqaUBKTNV-1" target="Qt7xFMzCx2u2yuGG2vqX-114" edge="1">
          <mxGeometry width="50" height="50" relative="1" as="geometry">
            <mxPoint x="650" y="712.1300000000001" as="sourcePoint" />
            <mxPoint x="710" y="562.13" as="targetPoint" />
          </mxGeometry>
        </mxCell>
        <mxCell id="Qt7xFMzCx2u2yuGG2vqX-139" value="" style="rounded=1;whiteSpace=wrap;html=1;fontSize=13;arcSize=4;" parent="WIyWlLk6GJQsqaUBKTNV-1" vertex="1">
          <mxGeometry x="784" y="160" width="195" height="350" as="geometry" />
        </mxCell>
        <mxCell id="Qt7xFMzCx2u2yuGG2vqX-140" value="" style="rounded=0;html=1;jettySize=auto;orthogonalLoop=1;fontSize=11;endArrow=none;endFill=0;endSize=8;strokeWidth=1;shadow=0;labelBackgroundColor=none;edgeStyle=orthogonalEdgeStyle;startArrow=classic;startFill=1;exitX=0.5;exitY=1;exitDx=0;exitDy=0;" parent="WIyWlLk6GJQsqaUBKTNV-1" source="Qt7xFMzCx2u2yuGG2vqX-142" target="Qt7xFMzCx2u2yuGG2vqX-141" edge="1">
          <mxGeometry x="0.3333" y="20" relative="1" as="geometry">
            <mxPoint as="offset" />
            <mxPoint x="869" y="616" as="sourcePoint" />
          </mxGeometry>
        </mxCell>
        <mxCell id="Qt7xFMzCx2u2yuGG2vqX-141" value="NL Comment&lt;br&gt;Embedding" style="rounded=1;whiteSpace=wrap;html=1;fontSize=12;glass=0;strokeWidth=1;shadow=0;arcSize=9;" parent="WIyWlLk6GJQsqaUBKTNV-1" vertex="1">
          <mxGeometry x="809" y="628.1300000000001" width="120" height="40" as="geometry" />
        </mxCell>
        <mxCell id="Qt7xFMzCx2u2yuGG2vqX-142" value="&lt;font style=&quot;font-size: 19px&quot;&gt;+&lt;/font&gt;" style="ellipse;whiteSpace=wrap;html=1;aspect=fixed;" parent="WIyWlLk6GJQsqaUBKTNV-1" vertex="1">
          <mxGeometry x="856.5" y="573.5" width="25" height="25" as="geometry" />
        </mxCell>
        <mxCell id="Qt7xFMzCx2u2yuGG2vqX-143" value="&lt;div style=&quot;font-size: 13px;&quot;&gt;&lt;span style=&quot;font-size: 13px;&quot;&gt;Positional&lt;/span&gt;&lt;/div&gt;&lt;div style=&quot;font-size: 13px;&quot;&gt;&lt;span style=&quot;font-size: 13px;&quot;&gt;Embedding&lt;/span&gt;&lt;/div&gt;" style="text;html=1;strokeColor=none;fillColor=none;align=center;verticalAlign=middle;whiteSpace=wrap;rounded=0;fontSize=13;" parent="WIyWlLk6GJQsqaUBKTNV-1" vertex="1">
          <mxGeometry x="919" y="571" width="80" height="30" as="geometry" />
        </mxCell>
        <mxCell id="Qt7xFMzCx2u2yuGG2vqX-144" value="" style="endArrow=classic;html=1;rounded=0;fontSize=13;entryX=1;entryY=0.5;entryDx=0;entryDy=0;exitX=0;exitY=0.5;exitDx=0;exitDy=0;" parent="WIyWlLk6GJQsqaUBKTNV-1" source="Qt7xFMzCx2u2yuGG2vqX-143" target="Qt7xFMzCx2u2yuGG2vqX-142" edge="1">
          <mxGeometry width="50" height="50" relative="1" as="geometry">
            <mxPoint x="719" y="656" as="sourcePoint" />
            <mxPoint x="769" y="606" as="targetPoint" />
          </mxGeometry>
        </mxCell>
        <mxCell id="Qt7xFMzCx2u2yuGG2vqX-145" value="" style="endArrow=classic;html=1;rounded=0;fontSize=13;exitX=0.5;exitY=0;exitDx=0;exitDy=0;entryX=0.5;entryY=1;entryDx=0;entryDy=0;" parent="WIyWlLk6GJQsqaUBKTNV-1" source="Qt7xFMzCx2u2yuGG2vqX-142" target="Qt7xFMzCx2u2yuGG2vqX-146" edge="1">
          <mxGeometry width="50" height="50" relative="1" as="geometry">
            <mxPoint x="899" y="610" as="sourcePoint" />
            <mxPoint x="869" y="560" as="targetPoint" />
          </mxGeometry>
        </mxCell>
        <mxCell id="Qt7xFMzCx2u2yuGG2vqX-146" value="Masked&lt;br&gt;Multi-Head&lt;br&gt;Attention" style="rounded=1;whiteSpace=wrap;html=1;fontSize=12;glass=0;strokeWidth=1;shadow=0;arcSize=9;fillColor=#ffe6cc;strokeColor=#d79b00;" parent="WIyWlLk6GJQsqaUBKTNV-1" vertex="1">
          <mxGeometry x="809" y="410" width="120" height="60" as="geometry" />
        </mxCell>
        <mxCell id="Qt7xFMzCx2u2yuGG2vqX-147" value="Add &amp;amp; Norm" style="rounded=1;whiteSpace=wrap;html=1;fontSize=12;glass=0;strokeWidth=1;shadow=0;arcSize=9;fillColor=#fff2cc;strokeColor=#d6b656;" parent="WIyWlLk6GJQsqaUBKTNV-1" vertex="1">
          <mxGeometry x="809" y="380" width="120" height="20" as="geometry" />
        </mxCell>
        <mxCell id="Qt7xFMzCx2u2yuGG2vqX-148" value="" style="endArrow=classic;html=1;rounded=0;fontSize=13;exitX=0.5;exitY=0;exitDx=0;exitDy=0;entryX=0.5;entryY=1;entryDx=0;entryDy=0;" parent="WIyWlLk6GJQsqaUBKTNV-1" source="Qt7xFMzCx2u2yuGG2vqX-146" target="Qt7xFMzCx2u2yuGG2vqX-147" edge="1">
          <mxGeometry width="50" height="50" relative="1" as="geometry">
            <mxPoint x="869" y="410" as="sourcePoint" />
            <mxPoint x="909" y="440" as="targetPoint" />
          </mxGeometry>
        </mxCell>
        <mxCell id="Qt7xFMzCx2u2yuGG2vqX-149" value="" style="endArrow=classic;html=1;rounded=1;fontSize=13;exitX=0.5;exitY=0;exitDx=0;exitDy=0;entryX=0.75;entryY=1;entryDx=0;entryDy=0;arcSize=15;" parent="WIyWlLk6GJQsqaUBKTNV-1" source="Qt7xFMzCx2u2yuGG2vqX-147" target="Qt7xFMzCx2u2yuGG2vqX-156" edge="1">
          <mxGeometry width="50" height="50" relative="1" as="geometry">
            <mxPoint x="959" y="360" as="sourcePoint" />
            <mxPoint x="869" y="350" as="targetPoint" />
            <Array as="points">
              <mxPoint x="869" y="360" />
              <mxPoint x="899" y="360" />
            </Array>
          </mxGeometry>
        </mxCell>
        <mxCell id="Qt7xFMzCx2u2yuGG2vqX-150" value="" style="endArrow=classic;html=1;rounded=1;fontSize=13;entryX=1;entryY=0.5;entryDx=0;entryDy=0;arcSize=15;" parent="WIyWlLk6GJQsqaUBKTNV-1" target="Qt7xFMzCx2u2yuGG2vqX-147" edge="1">
          <mxGeometry width="50" height="50" relative="1" as="geometry">
            <mxPoint x="868.9999999999995" y="500" as="sourcePoint" />
            <mxPoint x="899" y="410" as="targetPoint" />
            <Array as="points">
              <mxPoint x="959" y="500" />
              <mxPoint x="959" y="390" />
            </Array>
          </mxGeometry>
        </mxCell>
        <mxCell id="Qt7xFMzCx2u2yuGG2vqX-151" value="Feed&lt;br&gt;Forward" style="rounded=1;whiteSpace=wrap;html=1;fontSize=12;glass=0;strokeWidth=1;shadow=0;arcSize=9;fillColor=#dae8fc;strokeColor=#6c8ebf;" parent="WIyWlLk6GJQsqaUBKTNV-1" vertex="1">
          <mxGeometry x="809" y="199" width="120" height="40" as="geometry" />
        </mxCell>
        <mxCell id="Qt7xFMzCx2u2yuGG2vqX-152" value="Add &amp;amp; Norm" style="rounded=1;whiteSpace=wrap;html=1;fontSize=12;glass=0;strokeWidth=1;shadow=0;arcSize=9;fillColor=#fff2cc;strokeColor=#d6b656;" parent="WIyWlLk6GJQsqaUBKTNV-1" vertex="1">
          <mxGeometry x="809" y="169" width="120" height="20" as="geometry" />
        </mxCell>
        <mxCell id="Qt7xFMzCx2u2yuGG2vqX-153" value="" style="endArrow=classic;html=1;rounded=0;fontSize=13;exitX=0.5;exitY=0;exitDx=0;exitDy=0;entryX=0.5;entryY=1;entryDx=0;entryDy=0;" parent="WIyWlLk6GJQsqaUBKTNV-1" source="Qt7xFMzCx2u2yuGG2vqX-151" target="Qt7xFMzCx2u2yuGG2vqX-152" edge="1">
          <mxGeometry width="50" height="50" relative="1" as="geometry">
            <mxPoint x="859" y="279" as="sourcePoint" />
            <mxPoint x="909" y="229" as="targetPoint" />
          </mxGeometry>
        </mxCell>
        <mxCell id="Qt7xFMzCx2u2yuGG2vqX-154" value="" style="endArrow=classic;html=1;rounded=1;fontSize=13;entryX=0.75;entryY=1;entryDx=0;entryDy=0;arcSize=15;" parent="WIyWlLk6GJQsqaUBKTNV-1" target="Qt7xFMzCx2u2yuGG2vqX-146" edge="1">
          <mxGeometry width="50" height="50" relative="1" as="geometry">
            <mxPoint x="868.9999999999995" y="490" as="sourcePoint" />
            <mxPoint x="919" y="490" as="targetPoint" />
            <Array as="points">
              <mxPoint x="899" y="490" />
            </Array>
          </mxGeometry>
        </mxCell>
        <mxCell id="Qt7xFMzCx2u2yuGG2vqX-155" value="" style="endArrow=classic;html=1;rounded=1;fontSize=13;entryX=0.25;entryY=1;entryDx=0;entryDy=0;arcSize=15;" parent="WIyWlLk6GJQsqaUBKTNV-1" target="Qt7xFMzCx2u2yuGG2vqX-146" edge="1">
          <mxGeometry width="50" height="50" relative="1" as="geometry">
            <mxPoint x="868.9999999999995" y="490" as="sourcePoint" />
            <mxPoint x="869" y="470" as="targetPoint" />
            <Array as="points">
              <mxPoint x="839" y="490" />
            </Array>
          </mxGeometry>
        </mxCell>
        <mxCell id="Qt7xFMzCx2u2yuGG2vqX-156" value="Multi-Head&lt;br&gt;Attention" style="rounded=1;whiteSpace=wrap;html=1;fontSize=12;glass=0;strokeWidth=1;shadow=0;arcSize=9;fillColor=#fad9d5;strokeColor=#ae4132;" parent="WIyWlLk6GJQsqaUBKTNV-1" vertex="1">
          <mxGeometry x="809" y="300" width="120" height="40" as="geometry" />
        </mxCell>
        <mxCell id="Qt7xFMzCx2u2yuGG2vqX-157" value="Add &amp;amp; Norm" style="rounded=1;whiteSpace=wrap;html=1;fontSize=12;glass=0;strokeWidth=1;shadow=0;arcSize=9;fillColor=#fff2cc;strokeColor=#d6b656;" parent="WIyWlLk6GJQsqaUBKTNV-1" vertex="1">
          <mxGeometry x="809" y="270" width="120" height="20" as="geometry" />
        </mxCell>
        <mxCell id="Qt7xFMzCx2u2yuGG2vqX-158" value="" style="endArrow=classic;html=1;rounded=0;fontSize=13;exitX=0.5;exitY=0;exitDx=0;exitDy=0;entryX=0.5;entryY=1;entryDx=0;entryDy=0;" parent="WIyWlLk6GJQsqaUBKTNV-1" source="Qt7xFMzCx2u2yuGG2vqX-156" target="Qt7xFMzCx2u2yuGG2vqX-157" edge="1">
          <mxGeometry width="50" height="50" relative="1" as="geometry">
            <mxPoint x="859" y="380" as="sourcePoint" />
            <mxPoint x="909" y="330" as="targetPoint" />
          </mxGeometry>
        </mxCell>
        <mxCell id="Qt7xFMzCx2u2yuGG2vqX-159" value="" style="endArrow=classic;html=1;rounded=1;fontSize=13;arcSize=15;" parent="WIyWlLk6GJQsqaUBKTNV-1" edge="1">
          <mxGeometry width="50" height="50" relative="1" as="geometry">
            <mxPoint x="868.9999999999995" y="370" as="sourcePoint" />
            <mxPoint x="928.9999999999995" y="280" as="targetPoint" />
            <Array as="points">
              <mxPoint x="959" y="370" />
              <mxPoint x="959" y="280" />
            </Array>
          </mxGeometry>
        </mxCell>
        <mxCell id="Qt7xFMzCx2u2yuGG2vqX-160" value="" style="endArrow=classic;html=1;fontSize=13;exitX=0.5;exitY=0;exitDx=0;exitDy=0;entryX=0.5;entryY=1;entryDx=0;entryDy=0;edgeStyle=orthogonalEdgeStyle;rounded=1;arcSize=15;" parent="WIyWlLk6GJQsqaUBKTNV-1" source="Qt7xFMzCx2u2yuGG2vqX-127" target="Qt7xFMzCx2u2yuGG2vqX-156" edge="1">
          <mxGeometry width="50" height="50" relative="1" as="geometry">
            <mxPoint x="913.9999999999998" y="360" as="sourcePoint" />
            <mxPoint x="854" y="340" as="targetPoint" />
            <Array as="points">
              <mxPoint x="650" y="260" />
              <mxPoint x="760" y="260" />
              <mxPoint x="760" y="360" />
              <mxPoint x="869" y="360" />
            </Array>
          </mxGeometry>
        </mxCell>
        <mxCell id="Qt7xFMzCx2u2yuGG2vqX-161" value="" style="endArrow=classic;html=1;rounded=0;fontSize=13;exitX=0.5;exitY=0;exitDx=0;exitDy=0;" parent="WIyWlLk6GJQsqaUBKTNV-1" source="Qt7xFMzCx2u2yuGG2vqX-162" target="Qt7xFMzCx2u2yuGG2vqX-141" edge="1">
          <mxGeometry width="50" height="50" relative="1" as="geometry">
            <mxPoint x="868.9999999999998" y="713.1300000000001" as="sourcePoint" />
            <mxPoint x="929" y="563.13" as="targetPoint" />
          </mxGeometry>
        </mxCell>
        <mxCell id="Qt7xFMzCx2u2yuGG2vqX-162" value="Comment" style="text;html=1;strokeColor=none;fillColor=none;align=center;verticalAlign=middle;whiteSpace=wrap;rounded=0;fontSize=13;" parent="WIyWlLk6GJQsqaUBKTNV-1" vertex="1">
          <mxGeometry x="839" y="708.1300000000001" width="60" height="30" as="geometry" />
        </mxCell>
        <mxCell id="Qt7xFMzCx2u2yuGG2vqX-167" value="" style="endArrow=classic;html=1;rounded=0;fontSize=13;exitX=0.5;exitY=0;exitDx=0;exitDy=0;entryX=0.5;entryY=1;entryDx=0;entryDy=0;" parent="WIyWlLk6GJQsqaUBKTNV-1" source="Qt7xFMzCx2u2yuGG2vqX-157" target="Qt7xFMzCx2u2yuGG2vqX-151" edge="1">
          <mxGeometry width="50" height="50" relative="1" as="geometry">
            <mxPoint x="869" y="160" as="sourcePoint" />
            <mxPoint x="1009" y="170" as="targetPoint" />
          </mxGeometry>
        </mxCell>
        <mxCell id="Qt7xFMzCx2u2yuGG2vqX-168" value="" style="endArrow=classic;html=1;rounded=1;fontSize=13;arcSize=15;" parent="WIyWlLk6GJQsqaUBKTNV-1" edge="1">
          <mxGeometry width="50" height="50" relative="1" as="geometry">
            <mxPoint x="868.9999999999995" y="259" as="sourcePoint" />
            <mxPoint x="928.9999999999995" y="179" as="targetPoint" />
            <Array as="points">
              <mxPoint x="959" y="259" />
              <mxPoint x="959" y="179" />
            </Array>
          </mxGeometry>
        </mxCell>
        <mxCell id="Qt7xFMzCx2u2yuGG2vqX-169" value="" style="endArrow=classic;html=1;rounded=0;fontSize=13;entryX=0.5;entryY=1;entryDx=0;entryDy=0;" parent="WIyWlLk6GJQsqaUBKTNV-1" target="Qt7xFMzCx2u2yuGG2vqX-170" edge="1">
          <mxGeometry width="50" height="50" relative="1" as="geometry">
            <mxPoint x="868.9999999999995" y="169" as="sourcePoint" />
            <mxPoint x="869" y="109" as="targetPoint" />
          </mxGeometry>
        </mxCell>
        <mxCell id="Qt7xFMzCx2u2yuGG2vqX-170" value="Softmax" style="rounded=1;whiteSpace=wrap;html=1;fontSize=12;glass=0;strokeWidth=1;shadow=0;arcSize=9;fillColor=#d5e8d4;strokeColor=#82b366;" parent="WIyWlLk6GJQsqaUBKTNV-1" vertex="1">
          <mxGeometry x="809" y="119" width="120" height="20" as="geometry" />
        </mxCell>
        <mxCell id="Qt7xFMzCx2u2yuGG2vqX-171" value="" style="endArrow=classic;html=1;rounded=0;fontSize=13;entryX=0.25;entryY=1;entryDx=0;entryDy=0;" parent="WIyWlLk6GJQsqaUBKTNV-1" target="Qt7xFMzCx2u2yuGG2vqX-156" edge="1">
          <mxGeometry width="50" height="50" relative="1" as="geometry">
            <mxPoint x="838.9999999999995" y="360" as="sourcePoint" />
            <mxPoint x="854" y="330" as="targetPoint" />
          </mxGeometry>
        </mxCell>
        <mxCell id="i6Bc_vDQ22BJko2PGX70-1" value="" style="rounded=1;whiteSpace=wrap;html=1;fontSize=13;arcSize=4;" vertex="1" parent="WIyWlLk6GJQsqaUBKTNV-1">
          <mxGeometry x="1120" y="110" width="196.5" height="242" as="geometry" />
        </mxCell>
        <mxCell id="i6Bc_vDQ22BJko2PGX70-2" value="" style="rounded=0;html=1;jettySize=auto;orthogonalLoop=1;fontSize=11;endArrow=none;endFill=0;endSize=3;strokeWidth=1;shadow=0;labelBackgroundColor=none;edgeStyle=orthogonalEdgeStyle;startArrow=classic;startFill=1;exitX=0.5;exitY=1;exitDx=0;exitDy=0;startSize=3;" edge="1" parent="WIyWlLk6GJQsqaUBKTNV-1" source="i6Bc_vDQ22BJko2PGX70-4" target="i6Bc_vDQ22BJko2PGX70-3">
          <mxGeometry x="0.3333" y="20" relative="1" as="geometry">
            <mxPoint as="offset" />
            <mxPoint x="1170" y="547.0000000000001" as="sourcePoint" />
          </mxGeometry>
        </mxCell>
        <mxCell id="i6Bc_vDQ22BJko2PGX70-3" value="Embedding" style="rounded=1;whiteSpace=wrap;html=1;fontSize=12;glass=0;strokeWidth=1;shadow=0;arcSize=9;" vertex="1" parent="WIyWlLk6GJQsqaUBKTNV-1">
          <mxGeometry x="1120" y="559.1300000000002" width="100" height="40" as="geometry" />
        </mxCell>
        <mxCell id="i6Bc_vDQ22BJko2PGX70-4" value="&lt;font style=&quot;font-size: 19px&quot;&gt;+&lt;/font&gt;" style="ellipse;whiteSpace=wrap;html=1;aspect=fixed;" vertex="1" parent="WIyWlLk6GJQsqaUBKTNV-1">
          <mxGeometry x="1157.5" y="504.5000000000001" width="25" height="25" as="geometry" />
        </mxCell>
        <mxCell id="i6Bc_vDQ22BJko2PGX70-5" value="&lt;div style=&quot;font-size: 13px;&quot;&gt;&lt;span style=&quot;font-size: 13px;&quot;&gt;Positional&lt;/span&gt;&lt;/div&gt;&lt;div style=&quot;font-size: 13px;&quot;&gt;&lt;span style=&quot;font-size: 13px;&quot;&gt;Embedding&lt;/span&gt;&lt;/div&gt;" style="text;html=1;strokeColor=none;fillColor=none;align=center;verticalAlign=middle;whiteSpace=wrap;rounded=0;fontSize=13;" vertex="1" parent="WIyWlLk6GJQsqaUBKTNV-1">
          <mxGeometry x="1068" y="502.0000000000001" width="80" height="30" as="geometry" />
        </mxCell>
        <mxCell id="i6Bc_vDQ22BJko2PGX70-6" value="" style="endArrow=classic;html=1;rounded=0;fontSize=13;entryX=0;entryY=0.5;entryDx=0;entryDy=0;endSize=3;" edge="1" parent="WIyWlLk6GJQsqaUBKTNV-1" target="i6Bc_vDQ22BJko2PGX70-4">
          <mxGeometry width="50" height="50" relative="1" as="geometry">
            <mxPoint x="1144" y="517" as="sourcePoint" />
            <mxPoint x="1070" y="537.0000000000001" as="targetPoint" />
          </mxGeometry>
        </mxCell>
        <mxCell id="i6Bc_vDQ22BJko2PGX70-7" value="" style="endArrow=classic;html=1;rounded=0;fontSize=13;exitX=0.5;exitY=0;exitDx=0;exitDy=0;entryX=0.5;entryY=1;entryDx=0;entryDy=0;endSize=3;" edge="1" parent="WIyWlLk6GJQsqaUBKTNV-1" source="i6Bc_vDQ22BJko2PGX70-4" target="i6Bc_vDQ22BJko2PGX70-8">
          <mxGeometry width="50" height="50" relative="1" as="geometry">
            <mxPoint x="1200" y="541.0000000000001" as="sourcePoint" />
            <mxPoint x="1170" y="481.0000000000001" as="targetPoint" />
          </mxGeometry>
        </mxCell>
        <mxCell id="i6Bc_vDQ22BJko2PGX70-8" value="CNN" style="rounded=1;whiteSpace=wrap;html=1;fontSize=12;glass=0;strokeWidth=1;shadow=0;arcSize=9;imageHeight=24;fillColor=#e1d5e7;strokeColor=#9673a6;" vertex="1" parent="WIyWlLk6GJQsqaUBKTNV-1">
          <mxGeometry x="1120" y="450.0000000000001" width="100" height="31" as="geometry" />
        </mxCell>
        <mxCell id="i6Bc_vDQ22BJko2PGX70-9" value="Multi-Head&lt;br&gt;Attention" style="rounded=1;whiteSpace=wrap;html=1;fontSize=12;glass=0;strokeWidth=1;shadow=0;arcSize=9;fillColor=#fad9d5;strokeColor=#ae4132;" vertex="1" parent="WIyWlLk6GJQsqaUBKTNV-1">
          <mxGeometry x="1160.25" y="271" width="140" height="40" as="geometry" />
        </mxCell>
        <mxCell id="i6Bc_vDQ22BJko2PGX70-10" value="Add &amp;amp; Norm" style="rounded=1;whiteSpace=wrap;html=1;fontSize=12;glass=0;strokeWidth=1;shadow=0;arcSize=9;fillColor=#fff2cc;strokeColor=#d6b656;" vertex="1" parent="WIyWlLk6GJQsqaUBKTNV-1">
          <mxGeometry x="1160.25" y="241" width="140" height="20" as="geometry" />
        </mxCell>
        <mxCell id="i6Bc_vDQ22BJko2PGX70-11" value="" style="endArrow=classic;html=1;rounded=0;fontSize=13;entryX=0.5;entryY=1;entryDx=0;entryDy=0;exitX=0.5;exitY=0;exitDx=0;exitDy=0;endSize=3;" edge="1" parent="WIyWlLk6GJQsqaUBKTNV-1" source="i6Bc_vDQ22BJko2PGX70-60" target="i6Bc_vDQ22BJko2PGX70-9">
          <mxGeometry width="50" height="50" relative="1" as="geometry">
            <mxPoint x="1230" y="381" as="sourcePoint" />
            <mxPoint x="1270" y="315.94" as="targetPoint" />
          </mxGeometry>
        </mxCell>
        <mxCell id="i6Bc_vDQ22BJko2PGX70-12" value="" style="endArrow=classic;html=1;rounded=0;fontSize=13;exitX=0.5;exitY=0;exitDx=0;exitDy=0;entryX=0.5;entryY=1;entryDx=0;entryDy=0;endSize=3;" edge="1" parent="WIyWlLk6GJQsqaUBKTNV-1" source="i6Bc_vDQ22BJko2PGX70-9" target="i6Bc_vDQ22BJko2PGX70-10">
          <mxGeometry width="50" height="50" relative="1" as="geometry">
            <mxPoint x="1220.25" y="351" as="sourcePoint" />
            <mxPoint x="1270.25" y="301" as="targetPoint" />
          </mxGeometry>
        </mxCell>
        <mxCell id="i6Bc_vDQ22BJko2PGX70-13" value="" style="endArrow=classic;html=1;rounded=0;fontSize=13;exitX=0.5;exitY=0;exitDx=0;exitDy=0;entryX=0.5;entryY=1;entryDx=0;entryDy=0;endSize=3;" edge="1" parent="WIyWlLk6GJQsqaUBKTNV-1" source="i6Bc_vDQ22BJko2PGX70-10" target="i6Bc_vDQ22BJko2PGX70-15">
          <mxGeometry width="50" height="50" relative="1" as="geometry">
            <mxPoint x="1320" y="235.94" as="sourcePoint" />
            <mxPoint x="1230" y="215.94" as="targetPoint" />
          </mxGeometry>
        </mxCell>
        <mxCell id="i6Bc_vDQ22BJko2PGX70-14" value="" style="endArrow=classic;html=1;rounded=1;fontSize=13;entryX=0;entryY=0.5;entryDx=0;entryDy=0;arcSize=15;endSize=3;" edge="1" parent="WIyWlLk6GJQsqaUBKTNV-1" target="i6Bc_vDQ22BJko2PGX70-10">
          <mxGeometry width="50" height="50" relative="1" as="geometry">
            <mxPoint x="1230.25" y="341" as="sourcePoint" />
            <mxPoint x="1260.25" y="251" as="targetPoint" />
            <Array as="points">
              <mxPoint x="1140.25" y="341" />
              <mxPoint x="1140.25" y="251" />
            </Array>
          </mxGeometry>
        </mxCell>
        <mxCell id="i6Bc_vDQ22BJko2PGX70-15" value="Feed&lt;br&gt;Forward" style="rounded=1;whiteSpace=wrap;html=1;fontSize=12;glass=0;strokeWidth=1;shadow=0;arcSize=9;fillColor=#dae8fc;strokeColor=#6c8ebf;" vertex="1" parent="WIyWlLk6GJQsqaUBKTNV-1">
          <mxGeometry x="1160" y="171" width="140" height="40" as="geometry" />
        </mxCell>
        <mxCell id="i6Bc_vDQ22BJko2PGX70-16" value="Add &amp;amp; Norm" style="rounded=1;whiteSpace=wrap;html=1;fontSize=12;glass=0;strokeWidth=1;shadow=0;arcSize=9;fillColor=#fff2cc;strokeColor=#d6b656;" vertex="1" parent="WIyWlLk6GJQsqaUBKTNV-1">
          <mxGeometry x="1160" y="141" width="140" height="20" as="geometry" />
        </mxCell>
        <mxCell id="i6Bc_vDQ22BJko2PGX70-17" value="" style="endArrow=classic;html=1;rounded=0;fontSize=13;exitX=0.5;exitY=0;exitDx=0;exitDy=0;entryX=0.5;entryY=1;entryDx=0;entryDy=0;startSize=2;endSize=3;" edge="1" parent="WIyWlLk6GJQsqaUBKTNV-1" source="i6Bc_vDQ22BJko2PGX70-15" target="i6Bc_vDQ22BJko2PGX70-16">
          <mxGeometry width="50" height="50" relative="1" as="geometry">
            <mxPoint x="1220" y="251" as="sourcePoint" />
            <mxPoint x="1270" y="201" as="targetPoint" />
          </mxGeometry>
        </mxCell>
        <mxCell id="i6Bc_vDQ22BJko2PGX70-18" value="" style="endArrow=classic;html=1;rounded=1;fontSize=13;entryX=0.75;entryY=1;entryDx=0;entryDy=0;arcSize=15;endSize=3;" edge="1" parent="WIyWlLk6GJQsqaUBKTNV-1" target="i6Bc_vDQ22BJko2PGX70-9">
          <mxGeometry width="50" height="50" relative="1" as="geometry">
            <mxPoint x="1230.25" y="331" as="sourcePoint" />
            <mxPoint x="1280.25" y="331" as="targetPoint" />
            <Array as="points">
              <mxPoint x="1265" y="331" />
            </Array>
          </mxGeometry>
        </mxCell>
        <mxCell id="i6Bc_vDQ22BJko2PGX70-19" value="" style="endArrow=classic;html=1;rounded=1;fontSize=13;entryX=0.25;entryY=1;entryDx=0;entryDy=0;arcSize=15;endSize=3;" edge="1" parent="WIyWlLk6GJQsqaUBKTNV-1" target="i6Bc_vDQ22BJko2PGX70-9">
          <mxGeometry width="50" height="50" relative="1" as="geometry">
            <mxPoint x="1230.25" y="331" as="sourcePoint" />
            <mxPoint x="1230.25" y="311" as="targetPoint" />
            <Array as="points">
              <mxPoint x="1195" y="331" />
            </Array>
          </mxGeometry>
        </mxCell>
        <mxCell id="i6Bc_vDQ22BJko2PGX70-20" value="" style="endArrow=classic;html=1;rounded=0;fontSize=13;exitX=0.5;exitY=0;exitDx=0;exitDy=0;endSize=3;" edge="1" parent="WIyWlLk6GJQsqaUBKTNV-1" target="i6Bc_vDQ22BJko2PGX70-3" source="i6Bc_vDQ22BJko2PGX70-72">
          <mxGeometry width="50" height="50" relative="1" as="geometry">
            <mxPoint x="1170" y="644.1300000000002" as="sourcePoint" />
            <mxPoint x="1230" y="494.13" as="targetPoint" />
          </mxGeometry>
        </mxCell>
        <mxCell id="i6Bc_vDQ22BJko2PGX70-21" value="" style="rounded=1;whiteSpace=wrap;html=1;fontSize=13;arcSize=4;" vertex="1" parent="WIyWlLk6GJQsqaUBKTNV-1">
          <mxGeometry x="1364" y="110" width="195" height="371" as="geometry" />
        </mxCell>
        <mxCell id="i6Bc_vDQ22BJko2PGX70-22" value="" style="rounded=0;html=1;jettySize=auto;orthogonalLoop=1;fontSize=11;endArrow=none;endFill=0;endSize=3;strokeWidth=1;shadow=0;labelBackgroundColor=none;edgeStyle=orthogonalEdgeStyle;startArrow=classic;startFill=1;exitX=0.5;exitY=1;exitDx=0;exitDy=0;startSize=3;" edge="1" parent="WIyWlLk6GJQsqaUBKTNV-1" source="i6Bc_vDQ22BJko2PGX70-24" target="i6Bc_vDQ22BJko2PGX70-23">
          <mxGeometry x="0.3333" y="20" relative="1" as="geometry">
            <mxPoint as="offset" />
            <mxPoint x="1449" y="544" as="sourcePoint" />
          </mxGeometry>
        </mxCell>
        <mxCell id="i6Bc_vDQ22BJko2PGX70-23" value="NL Comment&lt;br&gt;Embedding" style="rounded=1;whiteSpace=wrap;html=1;fontSize=12;glass=0;strokeWidth=1;shadow=0;arcSize=9;" vertex="1" parent="WIyWlLk6GJQsqaUBKTNV-1">
          <mxGeometry x="1389" y="556.1300000000001" width="120" height="40" as="geometry" />
        </mxCell>
        <mxCell id="i6Bc_vDQ22BJko2PGX70-24" value="&lt;font style=&quot;font-size: 19px&quot;&gt;+&lt;/font&gt;" style="ellipse;whiteSpace=wrap;html=1;aspect=fixed;" vertex="1" parent="WIyWlLk6GJQsqaUBKTNV-1">
          <mxGeometry x="1436.5" y="501.5" width="25" height="25" as="geometry" />
        </mxCell>
        <mxCell id="i6Bc_vDQ22BJko2PGX70-25" value="&lt;div style=&quot;font-size: 13px;&quot;&gt;&lt;span style=&quot;font-size: 13px;&quot;&gt;Positional&lt;/span&gt;&lt;/div&gt;&lt;div style=&quot;font-size: 13px;&quot;&gt;&lt;span style=&quot;font-size: 13px;&quot;&gt;Embedding&lt;/span&gt;&lt;/div&gt;" style="text;html=1;strokeColor=none;fillColor=none;align=center;verticalAlign=middle;whiteSpace=wrap;rounded=0;fontSize=13;" vertex="1" parent="WIyWlLk6GJQsqaUBKTNV-1">
          <mxGeometry x="1479" y="499" width="80" height="30" as="geometry" />
        </mxCell>
        <mxCell id="i6Bc_vDQ22BJko2PGX70-26" value="" style="endArrow=classic;html=1;rounded=0;fontSize=13;entryX=1;entryY=0.5;entryDx=0;entryDy=0;exitX=0;exitY=0.5;exitDx=0;exitDy=0;endSize=3;startSize=3;" edge="1" parent="WIyWlLk6GJQsqaUBKTNV-1" source="i6Bc_vDQ22BJko2PGX70-25" target="i6Bc_vDQ22BJko2PGX70-24">
          <mxGeometry width="50" height="50" relative="1" as="geometry">
            <mxPoint x="1299" y="584" as="sourcePoint" />
            <mxPoint x="1349" y="534" as="targetPoint" />
          </mxGeometry>
        </mxCell>
        <mxCell id="i6Bc_vDQ22BJko2PGX70-27" value="" style="endArrow=classic;html=1;rounded=0;fontSize=13;exitX=0.5;exitY=0;exitDx=0;exitDy=0;entryX=0.5;entryY=1;entryDx=0;entryDy=0;endSize=3;startSize=3;" edge="1" parent="WIyWlLk6GJQsqaUBKTNV-1" source="i6Bc_vDQ22BJko2PGX70-24" target="i6Bc_vDQ22BJko2PGX70-28">
          <mxGeometry width="50" height="50" relative="1" as="geometry">
            <mxPoint x="1479" y="538" as="sourcePoint" />
            <mxPoint x="1449" y="488" as="targetPoint" />
          </mxGeometry>
        </mxCell>
        <mxCell id="i6Bc_vDQ22BJko2PGX70-28" value="Masked&lt;br&gt;Multi-Head&lt;br&gt;Attention" style="rounded=1;whiteSpace=wrap;html=1;fontSize=12;glass=0;strokeWidth=1;shadow=0;arcSize=9;fillColor=#ffe6cc;strokeColor=#d79b00;" vertex="1" parent="WIyWlLk6GJQsqaUBKTNV-1">
          <mxGeometry x="1379" y="381" width="140" height="60" as="geometry" />
        </mxCell>
        <mxCell id="i6Bc_vDQ22BJko2PGX70-29" value="Add &amp;amp; Norm" style="rounded=1;whiteSpace=wrap;html=1;fontSize=12;glass=0;strokeWidth=1;shadow=0;arcSize=9;fillColor=#fff2cc;strokeColor=#d6b656;" vertex="1" parent="WIyWlLk6GJQsqaUBKTNV-1">
          <mxGeometry x="1379" y="351" width="140" height="20" as="geometry" />
        </mxCell>
        <mxCell id="i6Bc_vDQ22BJko2PGX70-30" value="" style="endArrow=classic;html=1;rounded=0;fontSize=13;exitX=0.5;exitY=0;exitDx=0;exitDy=0;entryX=0.5;entryY=1;entryDx=0;entryDy=0;endSize=4;startSize=4;" edge="1" parent="WIyWlLk6GJQsqaUBKTNV-1" source="i6Bc_vDQ22BJko2PGX70-28" target="i6Bc_vDQ22BJko2PGX70-29">
          <mxGeometry width="50" height="50" relative="1" as="geometry">
            <mxPoint x="1449" y="381" as="sourcePoint" />
            <mxPoint x="1489" y="411" as="targetPoint" />
          </mxGeometry>
        </mxCell>
        <mxCell id="i6Bc_vDQ22BJko2PGX70-31" value="" style="endArrow=classic;html=1;rounded=1;fontSize=13;exitX=0.5;exitY=0;exitDx=0;exitDy=0;entryX=0.75;entryY=1;entryDx=0;entryDy=0;arcSize=15;endSize=3;startSize=3;" edge="1" parent="WIyWlLk6GJQsqaUBKTNV-1" source="i6Bc_vDQ22BJko2PGX70-29" target="i6Bc_vDQ22BJko2PGX70-38">
          <mxGeometry width="50" height="50" relative="1" as="geometry">
            <mxPoint x="1539" y="331" as="sourcePoint" />
            <mxPoint x="1449" y="321" as="targetPoint" />
            <Array as="points">
              <mxPoint x="1449" y="331" />
              <mxPoint x="1484" y="331" />
            </Array>
          </mxGeometry>
        </mxCell>
        <mxCell id="i6Bc_vDQ22BJko2PGX70-32" value="" style="endArrow=classic;html=1;rounded=1;fontSize=13;entryX=1;entryY=0.5;entryDx=0;entryDy=0;arcSize=15;endSize=3;startSize=3;" edge="1" parent="WIyWlLk6GJQsqaUBKTNV-1" target="i6Bc_vDQ22BJko2PGX70-29">
          <mxGeometry width="50" height="50" relative="1" as="geometry">
            <mxPoint x="1448.9999999999995" y="471" as="sourcePoint" />
            <mxPoint x="1479" y="381" as="targetPoint" />
            <Array as="points">
              <mxPoint x="1539" y="471" />
              <mxPoint x="1539" y="361" />
            </Array>
          </mxGeometry>
        </mxCell>
        <mxCell id="i6Bc_vDQ22BJko2PGX70-33" value="Feed&lt;br&gt;Forward" style="rounded=1;whiteSpace=wrap;html=1;fontSize=12;glass=0;strokeWidth=1;shadow=0;arcSize=9;fillColor=#dae8fc;strokeColor=#6c8ebf;" vertex="1" parent="WIyWlLk6GJQsqaUBKTNV-1">
          <mxGeometry x="1379" y="170" width="140" height="40" as="geometry" />
        </mxCell>
        <mxCell id="i6Bc_vDQ22BJko2PGX70-34" value="Add &amp;amp; Norm" style="rounded=1;whiteSpace=wrap;html=1;fontSize=12;glass=0;strokeWidth=1;shadow=0;arcSize=9;fillColor=#fff2cc;strokeColor=#d6b656;" vertex="1" parent="WIyWlLk6GJQsqaUBKTNV-1">
          <mxGeometry x="1379" y="140" width="140" height="20" as="geometry" />
        </mxCell>
        <mxCell id="i6Bc_vDQ22BJko2PGX70-35" value="" style="endArrow=classic;html=1;rounded=0;fontSize=13;exitX=0.5;exitY=0;exitDx=0;exitDy=0;entryX=0.5;entryY=1;entryDx=0;entryDy=0;endSize=3;startSize=3;" edge="1" parent="WIyWlLk6GJQsqaUBKTNV-1" source="i6Bc_vDQ22BJko2PGX70-33" target="i6Bc_vDQ22BJko2PGX70-34">
          <mxGeometry width="50" height="50" relative="1" as="geometry">
            <mxPoint x="1439" y="250" as="sourcePoint" />
            <mxPoint x="1489" y="200" as="targetPoint" />
          </mxGeometry>
        </mxCell>
        <mxCell id="i6Bc_vDQ22BJko2PGX70-36" value="" style="endArrow=classic;html=1;rounded=1;fontSize=13;entryX=0.75;entryY=1;entryDx=0;entryDy=0;arcSize=15;endSize=3;startSize=3;" edge="1" parent="WIyWlLk6GJQsqaUBKTNV-1" target="i6Bc_vDQ22BJko2PGX70-28">
          <mxGeometry width="50" height="50" relative="1" as="geometry">
            <mxPoint x="1448.9999999999995" y="461" as="sourcePoint" />
            <mxPoint x="1499" y="461" as="targetPoint" />
            <Array as="points">
              <mxPoint x="1484" y="461" />
            </Array>
          </mxGeometry>
        </mxCell>
        <mxCell id="i6Bc_vDQ22BJko2PGX70-37" value="" style="endArrow=classic;html=1;rounded=1;fontSize=13;entryX=0.25;entryY=1;entryDx=0;entryDy=0;arcSize=15;endSize=3;startSize=3;" edge="1" parent="WIyWlLk6GJQsqaUBKTNV-1" target="i6Bc_vDQ22BJko2PGX70-28">
          <mxGeometry width="50" height="50" relative="1" as="geometry">
            <mxPoint x="1448.9999999999995" y="461" as="sourcePoint" />
            <mxPoint x="1449" y="441" as="targetPoint" />
            <Array as="points">
              <mxPoint x="1414" y="461" />
            </Array>
          </mxGeometry>
        </mxCell>
        <mxCell id="i6Bc_vDQ22BJko2PGX70-38" value="Multi-Head&lt;br&gt;Attention" style="rounded=1;whiteSpace=wrap;html=1;fontSize=12;glass=0;strokeWidth=1;shadow=0;arcSize=9;fillColor=#fad9d5;strokeColor=#ae4132;" vertex="1" parent="WIyWlLk6GJQsqaUBKTNV-1">
          <mxGeometry x="1379" y="271" width="140" height="40" as="geometry" />
        </mxCell>
        <mxCell id="i6Bc_vDQ22BJko2PGX70-39" value="Add &amp;amp; Norm" style="rounded=1;whiteSpace=wrap;html=1;fontSize=12;glass=0;strokeWidth=1;shadow=0;arcSize=9;fillColor=#fff2cc;strokeColor=#d6b656;" vertex="1" parent="WIyWlLk6GJQsqaUBKTNV-1">
          <mxGeometry x="1379" y="241" width="140" height="20" as="geometry" />
        </mxCell>
        <mxCell id="i6Bc_vDQ22BJko2PGX70-40" value="" style="endArrow=classic;html=1;rounded=0;fontSize=13;exitX=0.5;exitY=0;exitDx=0;exitDy=0;entryX=0.5;entryY=1;entryDx=0;entryDy=0;endSize=3;startSize=3;" edge="1" parent="WIyWlLk6GJQsqaUBKTNV-1" source="i6Bc_vDQ22BJko2PGX70-38" target="i6Bc_vDQ22BJko2PGX70-39">
          <mxGeometry width="50" height="50" relative="1" as="geometry">
            <mxPoint x="1439" y="351" as="sourcePoint" />
            <mxPoint x="1489" y="301" as="targetPoint" />
          </mxGeometry>
        </mxCell>
        <mxCell id="i6Bc_vDQ22BJko2PGX70-41" value="" style="endArrow=classic;html=1;rounded=1;fontSize=13;arcSize=15;endSize=3;startSize=3;" edge="1" parent="WIyWlLk6GJQsqaUBKTNV-1">
          <mxGeometry width="50" height="50" relative="1" as="geometry">
            <mxPoint x="1448.9999999999995" y="341" as="sourcePoint" />
            <mxPoint x="1520" y="251" as="targetPoint" />
            <Array as="points">
              <mxPoint x="1539" y="341" />
              <mxPoint x="1539" y="251" />
            </Array>
          </mxGeometry>
        </mxCell>
        <mxCell id="i6Bc_vDQ22BJko2PGX70-42" value="" style="endArrow=classic;html=1;fontSize=13;exitX=0.5;exitY=0;exitDx=0;exitDy=0;entryX=0.5;entryY=1;entryDx=0;entryDy=0;edgeStyle=orthogonalEdgeStyle;rounded=1;arcSize=15;endSize=3;startSize=3;" edge="1" parent="WIyWlLk6GJQsqaUBKTNV-1" source="i6Bc_vDQ22BJko2PGX70-16" target="i6Bc_vDQ22BJko2PGX70-38">
          <mxGeometry width="50" height="50" relative="1" as="geometry">
            <mxPoint x="1493.9999999999998" y="216.94" as="sourcePoint" />
            <mxPoint x="1434" y="196.94" as="targetPoint" />
            <Array as="points">
              <mxPoint x="1230" y="125" />
              <mxPoint x="1340" y="125" />
              <mxPoint x="1340" y="331" />
              <mxPoint x="1449" y="331" />
            </Array>
          </mxGeometry>
        </mxCell>
        <mxCell id="i6Bc_vDQ22BJko2PGX70-43" value="" style="endArrow=classic;html=1;rounded=0;fontSize=13;exitX=0.5;exitY=0;exitDx=0;exitDy=0;endSize=3;startSize=3;" edge="1" parent="WIyWlLk6GJQsqaUBKTNV-1" source="i6Bc_vDQ22BJko2PGX70-44" target="i6Bc_vDQ22BJko2PGX70-23">
          <mxGeometry width="50" height="50" relative="1" as="geometry">
            <mxPoint x="1448.9999999999998" y="641.1300000000001" as="sourcePoint" />
            <mxPoint x="1509" y="491.1299999999999" as="targetPoint" />
          </mxGeometry>
        </mxCell>
        <mxCell id="i6Bc_vDQ22BJko2PGX70-44" value="Comment" style="text;html=1;strokeColor=none;fillColor=none;align=center;verticalAlign=middle;whiteSpace=wrap;rounded=0;fontSize=13;" vertex="1" parent="WIyWlLk6GJQsqaUBKTNV-1">
          <mxGeometry x="1419" y="628.1300000000001" width="60" height="30" as="geometry" />
        </mxCell>
        <mxCell id="i6Bc_vDQ22BJko2PGX70-45" value="" style="endArrow=classic;html=1;rounded=0;fontSize=13;exitX=0.5;exitY=0;exitDx=0;exitDy=0;entryX=0.5;entryY=1;entryDx=0;entryDy=0;endSize=3;startSize=3;" edge="1" parent="WIyWlLk6GJQsqaUBKTNV-1" source="i6Bc_vDQ22BJko2PGX70-39" target="i6Bc_vDQ22BJko2PGX70-33">
          <mxGeometry width="50" height="50" relative="1" as="geometry">
            <mxPoint x="1449" y="131" as="sourcePoint" />
            <mxPoint x="1589" y="141" as="targetPoint" />
          </mxGeometry>
        </mxCell>
        <mxCell id="i6Bc_vDQ22BJko2PGX70-46" value="" style="endArrow=classic;html=1;rounded=1;fontSize=13;arcSize=15;endSize=3;startSize=3;" edge="1" parent="WIyWlLk6GJQsqaUBKTNV-1">
          <mxGeometry width="50" height="50" relative="1" as="geometry">
            <mxPoint x="1448.9999999999995" y="230" as="sourcePoint" />
            <mxPoint x="1520" y="150" as="targetPoint" />
            <Array as="points">
              <mxPoint x="1539" y="230" />
              <mxPoint x="1539" y="150" />
            </Array>
          </mxGeometry>
        </mxCell>
        <mxCell id="i6Bc_vDQ22BJko2PGX70-47" value="" style="endArrow=classic;html=1;rounded=0;fontSize=13;entryX=0.5;entryY=1;entryDx=0;entryDy=0;endSize=3;" edge="1" parent="WIyWlLk6GJQsqaUBKTNV-1" target="i6Bc_vDQ22BJko2PGX70-48">
          <mxGeometry width="50" height="50" relative="1" as="geometry">
            <mxPoint x="1448.9999999999995" y="140" as="sourcePoint" />
            <mxPoint x="1449" y="80" as="targetPoint" />
          </mxGeometry>
        </mxCell>
        <mxCell id="i6Bc_vDQ22BJko2PGX70-48" value="Softmax" style="rounded=1;whiteSpace=wrap;html=1;fontSize=12;glass=0;strokeWidth=1;shadow=0;arcSize=9;fillColor=#d5e8d4;strokeColor=#82b366;" vertex="1" parent="WIyWlLk6GJQsqaUBKTNV-1">
          <mxGeometry x="1389" y="70" width="120" height="20" as="geometry" />
        </mxCell>
        <mxCell id="i6Bc_vDQ22BJko2PGX70-49" value="" style="endArrow=classic;html=1;rounded=0;fontSize=13;entryX=0.25;entryY=1;entryDx=0;entryDy=0;endSize=3;startSize=3;" edge="1" parent="WIyWlLk6GJQsqaUBKTNV-1" target="i6Bc_vDQ22BJko2PGX70-38">
          <mxGeometry width="50" height="50" relative="1" as="geometry">
            <mxPoint x="1414" y="331" as="sourcePoint" />
            <mxPoint x="1434" y="301" as="targetPoint" />
          </mxGeometry>
        </mxCell>
        <mxCell id="i6Bc_vDQ22BJko2PGX70-52" value="" style="rounded=0;html=1;jettySize=auto;orthogonalLoop=1;fontSize=11;endArrow=none;endFill=0;endSize=3;strokeWidth=1;shadow=0;labelBackgroundColor=none;edgeStyle=orthogonalEdgeStyle;startArrow=classic;startFill=1;exitX=0.5;exitY=1;exitDx=0;exitDy=0;startSize=3;" edge="1" parent="WIyWlLk6GJQsqaUBKTNV-1" source="i6Bc_vDQ22BJko2PGX70-54" target="i6Bc_vDQ22BJko2PGX70-53">
          <mxGeometry x="0.3333" y="20" relative="1" as="geometry">
            <mxPoint as="offset" />
            <mxPoint x="1290" y="547.0000000000001" as="sourcePoint" />
          </mxGeometry>
        </mxCell>
        <mxCell id="i6Bc_vDQ22BJko2PGX70-53" value="Embedding" style="rounded=1;whiteSpace=wrap;html=1;fontSize=12;glass=0;strokeWidth=1;shadow=0;arcSize=9;" vertex="1" parent="WIyWlLk6GJQsqaUBKTNV-1">
          <mxGeometry x="1240" y="559.1300000000002" width="100" height="40" as="geometry" />
        </mxCell>
        <mxCell id="i6Bc_vDQ22BJko2PGX70-54" value="&lt;font style=&quot;font-size: 19px&quot;&gt;+&lt;/font&gt;" style="ellipse;whiteSpace=wrap;html=1;aspect=fixed;" vertex="1" parent="WIyWlLk6GJQsqaUBKTNV-1">
          <mxGeometry x="1277.5" y="504.5000000000001" width="25" height="25" as="geometry" />
        </mxCell>
        <mxCell id="i6Bc_vDQ22BJko2PGX70-55" value="&lt;div style=&quot;font-size: 13px;&quot;&gt;&lt;span style=&quot;font-size: 13px;&quot;&gt;Positional&lt;/span&gt;&lt;/div&gt;&lt;div style=&quot;font-size: 13px;&quot;&gt;&lt;span style=&quot;font-size: 13px;&quot;&gt;Embedding&lt;/span&gt;&lt;/div&gt;" style="text;html=1;strokeColor=none;fillColor=none;align=center;verticalAlign=middle;whiteSpace=wrap;rounded=0;fontSize=13;" vertex="1" parent="WIyWlLk6GJQsqaUBKTNV-1">
          <mxGeometry x="1189.5" y="502.0000000000001" width="80" height="30" as="geometry" />
        </mxCell>
        <mxCell id="i6Bc_vDQ22BJko2PGX70-56" value="" style="endArrow=classic;html=1;rounded=0;fontSize=13;entryX=0;entryY=0.5;entryDx=0;entryDy=0;exitX=1;exitY=0.5;exitDx=0;exitDy=0;endSize=3;" edge="1" parent="WIyWlLk6GJQsqaUBKTNV-1" target="i6Bc_vDQ22BJko2PGX70-54">
          <mxGeometry width="50" height="50" relative="1" as="geometry">
            <mxPoint x="1265" y="517.0000000000001" as="sourcePoint" />
            <mxPoint x="1190" y="537.0000000000001" as="targetPoint" />
          </mxGeometry>
        </mxCell>
        <mxCell id="i6Bc_vDQ22BJko2PGX70-57" value="" style="endArrow=classic;html=1;rounded=0;fontSize=13;exitX=0.5;exitY=0;exitDx=0;exitDy=0;entryX=0.5;entryY=1;entryDx=0;entryDy=0;endSize=3;" edge="1" parent="WIyWlLk6GJQsqaUBKTNV-1" source="i6Bc_vDQ22BJko2PGX70-54" target="i6Bc_vDQ22BJko2PGX70-58">
          <mxGeometry width="50" height="50" relative="1" as="geometry">
            <mxPoint x="1320" y="541.0000000000001" as="sourcePoint" />
            <mxPoint x="1290" y="481.0000000000001" as="targetPoint" />
          </mxGeometry>
        </mxCell>
        <mxCell id="i6Bc_vDQ22BJko2PGX70-58" value="CNN" style="rounded=1;whiteSpace=wrap;html=1;fontSize=12;glass=0;strokeWidth=1;shadow=0;arcSize=9;imageHeight=24;fillColor=#e1d5e7;strokeColor=#9673a6;" vertex="1" parent="WIyWlLk6GJQsqaUBKTNV-1">
          <mxGeometry x="1240" y="450.0000000000001" width="100" height="31" as="geometry" />
        </mxCell>
        <mxCell id="i6Bc_vDQ22BJko2PGX70-59" value="" style="endArrow=classic;html=1;rounded=0;fontSize=13;exitX=0.5;exitY=0;exitDx=0;exitDy=0;endSize=3;" edge="1" parent="WIyWlLk6GJQsqaUBKTNV-1" target="i6Bc_vDQ22BJko2PGX70-53" source="i6Bc_vDQ22BJko2PGX70-71">
          <mxGeometry width="50" height="50" relative="1" as="geometry">
            <mxPoint x="1290" y="644.1300000000002" as="sourcePoint" />
            <mxPoint x="1350" y="494.13" as="targetPoint" />
          </mxGeometry>
        </mxCell>
        <mxCell id="i6Bc_vDQ22BJko2PGX70-60" value="Gate Network" style="rounded=1;whiteSpace=wrap;html=1;fontSize=12;glass=0;strokeWidth=1;shadow=0;arcSize=9;imageHeight=24;fillColor=#d0cee2;strokeColor=#56517e;" vertex="1" parent="WIyWlLk6GJQsqaUBKTNV-1">
          <mxGeometry x="1150" y="371" width="160" height="31" as="geometry" />
        </mxCell>
        <mxCell id="i6Bc_vDQ22BJko2PGX70-66" value="" style="endArrow=none;html=1;rounded=0;exitX=0.5;exitY=0;exitDx=0;exitDy=0;entryX=0.5;entryY=0;entryDx=0;entryDy=0;" edge="1" parent="WIyWlLk6GJQsqaUBKTNV-1" source="i6Bc_vDQ22BJko2PGX70-58" target="i6Bc_vDQ22BJko2PGX70-8">
          <mxGeometry width="50" height="50" relative="1" as="geometry">
            <mxPoint x="1209.5" y="480.44000000000005" as="sourcePoint" />
            <mxPoint x="1229.5" y="430.44000000000005" as="targetPoint" />
            <Array as="points">
              <mxPoint x="1290" y="431" />
              <mxPoint x="1170" y="431" />
            </Array>
          </mxGeometry>
        </mxCell>
        <mxCell id="i6Bc_vDQ22BJko2PGX70-70" value="" style="endArrow=classic;html=1;rounded=0;entryX=0.5;entryY=1;entryDx=0;entryDy=0;endSize=3;" edge="1" parent="WIyWlLk6GJQsqaUBKTNV-1" target="i6Bc_vDQ22BJko2PGX70-60">
          <mxGeometry width="50" height="50" relative="1" as="geometry">
            <mxPoint x="1230" y="431" as="sourcePoint" />
            <mxPoint x="1270" y="401" as="targetPoint" />
          </mxGeometry>
        </mxCell>
        <mxCell id="i6Bc_vDQ22BJko2PGX70-71" value="Type" style="text;html=1;strokeColor=none;fillColor=none;align=center;verticalAlign=middle;whiteSpace=wrap;rounded=0;fontSize=13;" vertex="1" parent="WIyWlLk6GJQsqaUBKTNV-1">
          <mxGeometry x="1260" y="628.1300000000001" width="60" height="30" as="geometry" />
        </mxCell>
        <mxCell id="i6Bc_vDQ22BJko2PGX70-72" value="Code" style="text;html=1;strokeColor=none;fillColor=none;align=center;verticalAlign=middle;whiteSpace=wrap;rounded=0;fontSize=13;" vertex="1" parent="WIyWlLk6GJQsqaUBKTNV-1">
          <mxGeometry x="1140" y="628.1300000000001" width="60" height="30" as="geometry" />
        </mxCell>
        <mxCell id="i6Bc_vDQ22BJko2PGX70-78" style="edgeStyle=orthogonalEdgeStyle;rounded=0;orthogonalLoop=1;jettySize=auto;html=1;exitX=0.5;exitY=1;exitDx=0;exitDy=0;" edge="1" parent="WIyWlLk6GJQsqaUBKTNV-1" source="i6Bc_vDQ22BJko2PGX70-55" target="i6Bc_vDQ22BJko2PGX70-55">
          <mxGeometry relative="1" as="geometry" />
        </mxCell>
        <mxCell id="i6Bc_vDQ22BJko2PGX70-87" value="Code CNN Feature" style="rounded=1;whiteSpace=wrap;html=1;fontSize=12;glass=0;strokeWidth=1;shadow=0;arcSize=9;imageHeight=24;fillColor=#ffe6cc;strokeColor=#d79b00;" vertex="1" parent="WIyWlLk6GJQsqaUBKTNV-1">
          <mxGeometry x="1139.75" y="1049.8700000000001" width="100" height="31" as="geometry" />
        </mxCell>
        <mxCell id="i6Bc_vDQ22BJko2PGX70-95" value="CBT CNN&lt;br&gt;Feature" style="rounded=1;whiteSpace=wrap;html=1;fontSize=12;glass=0;strokeWidth=1;shadow=0;arcSize=9;imageHeight=24;fillColor=#fff2cc;strokeColor=#d6b656;" vertex="1" parent="WIyWlLk6GJQsqaUBKTNV-1">
          <mxGeometry x="1259.75" y="1049.8700000000001" width="100" height="31" as="geometry" />
        </mxCell>
        <mxCell id="i6Bc_vDQ22BJko2PGX70-98" value="" style="endArrow=none;html=1;rounded=0;exitX=0.5;exitY=0;exitDx=0;exitDy=0;entryX=0.5;entryY=0;entryDx=0;entryDy=0;arcSize=24;" edge="1" parent="WIyWlLk6GJQsqaUBKTNV-1" source="i6Bc_vDQ22BJko2PGX70-95" target="i6Bc_vDQ22BJko2PGX70-87">
          <mxGeometry width="50" height="50" relative="1" as="geometry">
            <mxPoint x="1229.25" y="1080.31" as="sourcePoint" />
            <mxPoint x="1249.25" y="1030.31" as="targetPoint" />
            <Array as="points">
              <mxPoint x="1309.75" y="1030.87" />
              <mxPoint x="1189.75" y="1030.87" />
            </Array>
          </mxGeometry>
        </mxCell>
        <mxCell id="i6Bc_vDQ22BJko2PGX70-99" value="" style="endArrow=classic;html=1;rounded=0;entryX=0.5;entryY=1;entryDx=0;entryDy=0;endSize=3;" edge="1" parent="WIyWlLk6GJQsqaUBKTNV-1" target="i6Bc_vDQ22BJko2PGX70-108">
          <mxGeometry width="50" height="50" relative="1" as="geometry">
            <mxPoint x="1249.75" y="1030.87" as="sourcePoint" />
            <mxPoint x="1249.75" y="1001.87" as="targetPoint" />
          </mxGeometry>
        </mxCell>
        <mxCell id="i6Bc_vDQ22BJko2PGX70-103" value="&lt;b style=&quot;font-size: 14px;&quot;&gt;Encoder&lt;/b&gt;" style="text;html=1;strokeColor=none;fillColor=none;align=center;verticalAlign=middle;whiteSpace=wrap;rounded=0;fontSize=14;" vertex="1" parent="WIyWlLk6GJQsqaUBKTNV-1">
          <mxGeometry x="1128.5" y="111" width="60" height="31" as="geometry" />
        </mxCell>
        <mxCell id="i6Bc_vDQ22BJko2PGX70-104" value="&lt;b style=&quot;font-size: 14px;&quot;&gt;Decoder&lt;/b&gt;" style="text;html=1;strokeColor=none;fillColor=none;align=center;verticalAlign=middle;whiteSpace=wrap;rounded=0;fontSize=14;" vertex="1" parent="WIyWlLk6GJQsqaUBKTNV-1">
          <mxGeometry x="1494" y="110" width="60" height="32" as="geometry" />
        </mxCell>
        <mxCell id="i6Bc_vDQ22BJko2PGX70-108" value="FCN" style="rounded=1;whiteSpace=wrap;html=1;fontSize=12;glass=0;strokeWidth=1;shadow=0;arcSize=9;imageHeight=24;fillColor=#e1d5e7;strokeColor=#9673a6;" vertex="1" parent="WIyWlLk6GJQsqaUBKTNV-1">
          <mxGeometry x="1199.75" y="980.15" width="100" height="31" as="geometry" />
        </mxCell>
        <mxCell id="i6Bc_vDQ22BJko2PGX70-110" value="σ" style="text;whiteSpace=wrap;html=1;fontSize=14;" vertex="1" parent="WIyWlLk6GJQsqaUBKTNV-1">
          <mxGeometry x="1252.75" y="954.87" width="30" height="30" as="geometry" />
        </mxCell>
        <mxCell id="i6Bc_vDQ22BJko2PGX70-112" value="" style="endArrow=classic;html=1;rounded=0;entryX=0.5;entryY=1;entryDx=0;entryDy=0;endSize=3;exitX=0.5;exitY=0;exitDx=0;exitDy=0;" edge="1" parent="WIyWlLk6GJQsqaUBKTNV-1" target="i6Bc_vDQ22BJko2PGX70-113" source="i6Bc_vDQ22BJko2PGX70-108">
          <mxGeometry width="50" height="50" relative="1" as="geometry">
            <mxPoint x="1249.75" y="976.12" as="sourcePoint" />
            <mxPoint x="1249.75" y="947.12" as="targetPoint" />
          </mxGeometry>
        </mxCell>
        <mxCell id="i6Bc_vDQ22BJko2PGX70-113" value="Gate Context" style="rounded=1;whiteSpace=wrap;html=1;fontSize=12;glass=0;strokeWidth=1;shadow=0;arcSize=9;imageHeight=24;fillColor=#e1d5e7;strokeColor=#9673a6;" vertex="1" parent="WIyWlLk6GJQsqaUBKTNV-1">
          <mxGeometry x="1199.75" y="919.85" width="100" height="39.43" as="geometry" />
        </mxCell>
        <mxCell id="i6Bc_vDQ22BJko2PGX70-116" value="concat" style="text;whiteSpace=wrap;html=1;fontSize=14;" vertex="1" parent="WIyWlLk6GJQsqaUBKTNV-1">
          <mxGeometry x="1226.75" y="1023.87" width="30" height="30" as="geometry" />
        </mxCell>
        <mxCell id="i6Bc_vDQ22BJko2PGX70-123" value="" style="endArrow=classic;html=1;rounded=0;endSize=3;entryX=0.5;entryY=1;entryDx=0;entryDy=0;exitX=0.5;exitY=0;exitDx=0;exitDy=0;" edge="1" parent="WIyWlLk6GJQsqaUBKTNV-1" source="i6Bc_vDQ22BJko2PGX70-141" target="i6Bc_vDQ22BJko2PGX70-131">
          <mxGeometry width="50" height="50" relative="1" as="geometry">
            <mxPoint x="1247.25" y="929" as="sourcePoint" />
            <mxPoint x="1239.75" y="890.87" as="targetPoint" />
          </mxGeometry>
        </mxCell>
        <mxCell id="i6Bc_vDQ22BJko2PGX70-130" value="σ" style="text;whiteSpace=wrap;html=1;fontSize=14;" vertex="1" parent="WIyWlLk6GJQsqaUBKTNV-1">
          <mxGeometry x="1242.25" y="760" width="20.5" height="30" as="geometry" />
        </mxCell>
        <mxCell id="i6Bc_vDQ22BJko2PGX70-131" value="Combined Feature" style="rounded=1;whiteSpace=wrap;html=1;fontSize=12;glass=0;strokeWidth=1;shadow=0;arcSize=9;imageHeight=24;fillColor=#e1d5e7;strokeColor=#9673a6;" vertex="1" parent="WIyWlLk6GJQsqaUBKTNV-1">
          <mxGeometry x="1189.75" y="800" width="120" height="31" as="geometry" />
        </mxCell>
        <mxCell id="i6Bc_vDQ22BJko2PGX70-141" value="&lt;font style=&quot;font-size: 19px&quot;&gt;+&lt;/font&gt;" style="ellipse;whiteSpace=wrap;html=1;aspect=fixed;" vertex="1" parent="WIyWlLk6GJQsqaUBKTNV-1">
          <mxGeometry x="1237.75" y="870.0000000000001" width="25" height="25" as="geometry" />
        </mxCell>
        <mxCell id="i6Bc_vDQ22BJko2PGX70-145" value="" style="endArrow=classic;html=1;rounded=1;fontSize=13;arcSize=15;endSize=3;startSize=3;exitX=0.75;exitY=0;exitDx=0;exitDy=0;entryX=1;entryY=0.5;entryDx=0;entryDy=0;" edge="1" parent="WIyWlLk6GJQsqaUBKTNV-1" source="i6Bc_vDQ22BJko2PGX70-95" target="i6Bc_vDQ22BJko2PGX70-141">
          <mxGeometry width="50" height="50" relative="1" as="geometry">
            <mxPoint x="1309.75" y="1030" as="sourcePoint" />
            <mxPoint x="1249.75" y="900" as="targetPoint" />
            <Array as="points">
              <mxPoint x="1334.75" y="883" />
            </Array>
          </mxGeometry>
        </mxCell>
        <mxCell id="i6Bc_vDQ22BJko2PGX70-154" value="&lt;span style=&quot;color: rgb(32, 33, 36); font-family: &amp;quot;Apple SD Gothic Neo&amp;quot;, arial, sans-serif; font-size: 16px; text-align: left; background-color: rgb(255, 255, 255);&quot;&gt;×&lt;/span&gt;" style="ellipse;whiteSpace=wrap;html=1;aspect=fixed;" vertex="1" parent="WIyWlLk6GJQsqaUBKTNV-1">
          <mxGeometry x="1159.75" y="934.2800000000002" width="25" height="25" as="geometry" />
        </mxCell>
      </root>
    </mxGraphModel>
  </diagram>
</mxfile>
